<?xml version="1.0" encoding="UTF-8" standalone="no"?>
<!-- Created with Inkscape (http://www.inkscape.org/) -->

<svg
   width="88.301399mm"
   height="23.017206mm"
   viewBox="0 0 88.301399 23.017206"
   version="1.1"
   id="svg3202"
   inkscape:version="1.1.2 (0a00cf5339, 2022-02-04)"
   sodipodi:docname="oak-trusted-shuffler-negative.svg"
   xmlns:inkscape="http://www.inkscape.org/namespaces/inkscape"
   xmlns:sodipodi="http://sodipodi.sourceforge.net/DTD/sodipodi-0.dtd"
   xmlns="http://www.w3.org/2000/svg"
   xmlns:svg="http://www.w3.org/2000/svg">
  <sodipodi:namedview
     id="namedview3204"
     pagecolor="#ffffff"
     bordercolor="#666666"
     borderopacity="1.0"
     inkscape:pageshadow="2"
     inkscape:pageopacity="0.0"
     inkscape:pagecheckerboard="0"
     inkscape:document-units="mm"
     showgrid="false"
     fit-margin-top="0"
     fit-margin-left="0"
     fit-margin-right="0"
     fit-margin-bottom="0"
     inkscape:zoom="0.72782688"
     inkscape:cx="-213.64971"
     inkscape:cy="-2.7479062"
     inkscape:window-width="2560"
     inkscape:window-height="1355"
     inkscape:window-x="1440"
     inkscape:window-y="311"
     inkscape:window-maximized="1"
     inkscape:current-layer="layer1" />
  <defs
     id="defs3199">
    <rect
       x="117.74503"
       y="441.03894"
       width="544.48914"
       height="88.909904"
       id="rect24124-0-3-9-3-8-4" />
  </defs>
  <g
     inkscape:label="Layer 1"
     inkscape:groupmode="layer"
     id="layer1"
     transform="translate(-136.8848,-149.53301)">
    <g
       id="g1093-4-9-8-5-6"
       transform="matrix(0.71967634,0,0,0.71967634,107.89187,138.05108)">
      <path
         id="path9713-6-2-2-3-3-4-6-0-6-4"
         style="fill:#ffbf00;stroke:#737373;stroke-width:0.18087"
         d="m 51.78657,23.616285 a 3.4338517,4.666791 0 0 1 -3.433852,4.666791 3.4338517,4.666791 0 0 1 -3.433851,-4.666791 3.4338517,4.666791 0 0 1 3.433851,-4.666791 3.4338517,4.666791 0 0 1 3.433852,4.666791 z" />
      <g
         id="g1086-4-2-2-6-1"
         transform="translate(0.00621353)">
        <path
           style="fill:#34a852;fill-opacity:1;stroke:#6d6d6d;stroke-width:0.18087;stroke-linecap:butt;stroke-linejoin:round;stroke-miterlimit:4;stroke-dasharray:none;stroke-opacity:1"
           d="m 40.370287,24.132384 7.070141,-0.107451 0.0395,10.637571 c 0,0 -6.003695,0.21491 -7.109642,-10.53012 z"
           id="path9925-6-6-9-6-5-4-1-1-4-2"
           sodipodi:nodetypes="cccc" />
        <path
           style="fill:#34a852;fill-opacity:1;stroke:#737373;stroke-width:0.18087;stroke-linecap:butt;stroke-linejoin:round;stroke-miterlimit:4;stroke-dasharray:none;stroke-opacity:1"
           d="m 56.322723,24.132381 -7.070141,-0.107451 -0.0395,10.637574 c 0,0 6.003695,0.2149 7.109641,-10.530123 z"
           id="path9925-6-6-9-6-5-6-7-7-0-0-8"
           sodipodi:nodetypes="cccc" />
      </g>
      <path
         id="path10128-9-6-0-6-5-6-8-5-0-8"
         style="fill:#137333;fill-opacity:1;stroke:#737373;stroke-width:0.18087;stroke-miterlimit:4;stroke-dasharray:none;stroke-opacity:1"
         d="m 48.350392,16.044738 a 7.9903085,6.9200343 0 0 0 -7.935184,6.151089 h 15.875021 a 7.9903085,6.9200343 0 0 0 -7.939837,-6.151089 z" />
    </g>
    <g
       aria-label="Project Oak"
       transform="matrix(0.19557787,0,0,0.19557787,127.89059,62.903167)"
       id="text24122-3-5-1-4-9"
       style="font-size:66.6667px;line-height:1.25;white-space:pre;shape-inside:url(#rect24124);fill:#ffffff">
      <path
         d="m 122.54414,502.13418 v -47.73336 h 16.80001 q 3.4,0 6.33334,1.13333 3,1.06667 5.2,3.06667 2.2,2 3.46667,4.8 1.26667,2.73334 1.26667,6.06667 0,3.4 -1.26667,6.20001 -1.26667,2.73333 -3.46667,4.73333 -2.2,2 -5.2,3.13334 -2.93334,1.06666 -6.33334,1.06666 h -7.8 v 17.53335 z m 16.93335,-26.06668 q 3.53333,0 5.33333,-2.00001 1.8,-2 1.8,-4.6 0,-1.26667 -0.46666,-2.46667 -0.4,-1.2 -1.33334,-2.06666 -0.86667,-0.93334 -2.2,-1.46667 -1.33333,-0.53333 -3.13333,-0.53333 h -7.93334 v 13.13334 z"
         style="font-weight:bold;font-family:'Product Sans';-inkscape-font-specification:'Product Sans Bold';fill:#ffffff"
         id="path15728-1-7-1-6-2" />
      <path
         d="m 160.9441,469.46749 h 8.20001 v 4.53334 h 0.53333 q 0.6,-1.2 1.6,-2.2 1,-1 2.2,-1.73334 1.26667,-0.73333 2.66667,-1.13333 1.46667,-0.4 2.86667,-0.4 1.73333,0 2.93333,0.33333 1.26667,0.33334 2.13334,0.86667 l -2.33334,7.93334 q -0.8,-0.4 -1.8,-0.6 -0.93333,-0.26667 -2.33333,-0.26667 -1.8,0 -3.26667,0.73333 -1.46667,0.66667 -2.53334,1.93334 -1,1.26666 -1.6,3 -0.53333,1.66667 -0.53333,3.66667 v 16.00001 h -8.73334 z"
         style="font-weight:bold;font-family:'Product Sans';-inkscape-font-specification:'Product Sans Bold';fill:#ffffff"
         id="path15730-7-4-0-2-8" />
      <path
         d="m 201.54405,468.40082 q 3.8,0 6.93334,1.33334 3.2,1.26667 5.46667,3.6 2.33333,2.26667 3.6,5.46667 1.33333,3.2 1.33333,7 0,3.80001 -1.33333,7.00001 -1.26667,3.2 -3.6,5.53333 -2.26667,2.26667 -5.46667,3.60001 -3.13334,1.26666 -6.93334,1.26666 -3.8,0 -7,-1.26666 -3.13334,-1.33334 -5.46667,-3.60001 -2.26667,-2.33333 -3.60001,-5.53333 -1.26666,-3.2 -1.26666,-7.00001 0,-3.8 1.26666,-7 1.33334,-3.2 3.60001,-5.46667 2.33333,-2.33333 5.46667,-3.6 3.2,-1.33334 7,-1.33334 z m 0,26.73335 q 1.66667,0 3.2,-0.6 1.6,-0.66666 2.8,-1.86667 1.2,-1.2 1.86667,-2.93333 0.73333,-1.73333 0.73333,-3.93334 0,-2.2 -0.73333,-3.93333 -0.66667,-1.73334 -1.86667,-2.93334 -1.2,-1.2 -2.8,-1.8 -1.53333,-0.66666 -3.2,-0.66666 -1.73333,0 -3.26667,0.66666 -1.53333,0.6 -2.73333,1.8 -1.2,1.2 -1.93334,2.93334 -0.66666,1.73333 -0.66666,3.93333 0,2.20001 0.66666,3.93334 0.73334,1.73333 1.93334,2.93333 1.2,1.20001 2.73333,1.86667 1.53334,0.6 3.26667,0.6 z"
         style="font-weight:bold;font-family:'Product Sans';-inkscape-font-specification:'Product Sans Bold';fill:#ffffff"
         id="path15732-5-18-8-6-8" />
      <path
         d="m 219.41054,508.53418 q 0.53333,0.33333 1,0.46667 0.53333,0.13333 1.26667,0.13333 3,0 3,-3.93334 v -35.73335 h 8.73333 v 36.00002 q 0,3.2 -0.86666,5.4 -0.86667,2.26667 -2.33334,3.66667 -1.46666,1.4 -3.4,2 -1.93333,0.66667 -4.13333,0.66667 -1.66667,0 -3.00001,-0.26667 -1.33333,-0.2 -2.46666,-0.66666 z m 9.6,-43.80002 q -1.13333,0 -2.2,-0.4 -1,-0.46667 -1.8,-1.2 -0.73333,-0.80001 -1.2,-1.80001 -0.4,-1 -0.4,-2.2 0,-1.2 0.4,-2.2 0.46667,-1 1.2,-1.73333 0.8,-0.8 1.8,-1.2 1.06667,-0.46667 2.2,-0.46667 2.33334,0 4,1.66667 1.66667,1.6 1.66667,3.93333 0,2.33334 -1.66667,4.00001 -1.66666,1.6 -4,1.6 z"
         style="font-weight:bold;font-family:'Product Sans';-inkscape-font-specification:'Product Sans Bold';fill:#ffffff"
         id="path15734-9-5-5-7-8" />
      <path
         d="m 272.01042,494.26751 q -2.26667,4 -6.13334,6.46667 -3.8,2.46666 -9.33334,2.46666 -3.73333,0 -6.93333,-1.26666 -3.13334,-1.33334 -5.46667,-3.66667 -2.33334,-2.33334 -3.66667,-5.46667 -1.26667,-3.2 -1.26667,-7.00001 0,-3.53333 1.26667,-6.66667 1.26667,-3.2 3.53333,-5.53333 2.26667,-2.4 5.33334,-3.8 3.13334,-1.40001 6.86667,-1.40001 3.93334,0 7.00001,1.33334 3.06666,1.26667 5.13333,3.6 2.06667,2.26667 3.13334,5.4 1.06666,3.13334 1.06666,6.80001 0,0.46666 0,0.8 -0.0667,0.4 -0.0667,0.73333 -0.0667,0.33333 -0.0667,0.73334 h -24.60001 q 0.26666,2 1.06666,3.46666 0.86667,1.4 2.06667,2.40001 1.26667,0.93333 2.73334,1.4 1.46666,0.4 3,0.4 3,0 4.93333,-1.33334 2.00001,-1.4 3.13334,-3.46667 z m -7.93334,-12.66668 q -0.0667,-0.86667 -0.6,-1.93333 -0.46666,-1.06667 -1.46667,-2 -0.93333,-0.93334 -2.4,-1.53334 -1.4,-0.6 -3.4,-0.6 -2.8,0 -4.93333,1.6 -2.13334,1.6 -3.00001,4.46667 z"
         style="font-weight:bold;font-family:'Product Sans';-inkscape-font-specification:'Product Sans Bold';fill:#ffffff"
         id="path15736-6-97-0-5-6" />
      <path
         d="m 309.47703,493.80084 q -2.13333,4.13333 -6,6.8 -3.8,2.6 -9.53334,2.6 -3.8,0 -7,-1.26666 -3.13334,-1.33334 -5.46667,-3.66667 -2.26667,-2.33334 -3.6,-5.46667 -1.26667,-3.2 -1.26667,-7.00001 0,-3.8 1.26667,-7 1.33333,-3.2 3.6,-5.46667 2.33333,-2.33333 5.46667,-3.6 3.2,-1.33334 7,-1.33334 5.66667,0 9.53334,2.60001 3.86667,2.6 5.66667,6.73333 l -8,3.33334 q -1.13334,-2.26667 -2.93334,-3.4 -1.73333,-1.2 -4.4,-1.2 -1.73333,0 -3.26667,0.66666 -1.53333,0.66667 -2.73333,1.86667 -1.13334,1.2 -1.8,2.93334 -0.66667,1.73333 -0.66667,3.86666 0,2.13334 0.66667,3.86667 0.66666,1.73334 1.8,2.93334 1.2,1.2 2.73333,1.86667 1.53334,0.66666 3.26667,0.66666 2.73333,0 4.6,-1.2 1.93334,-1.26667 3.06667,-3.6 z"
         style="font-weight:bold;font-family:'Product Sans';-inkscape-font-specification:'Product Sans Bold';fill:#ffffff"
         id="path15738-2-5-6-6-8" />
      <path
         d="m 318.07685,476.93416 h -5.73333 v -7.46667 h 5.73333 v -10 h 8.73334 v 10 h 8 v 7.46667 h -8 v 12.66668 q 0,1.13333 0.2,2.13333 0.26667,0.93333 0.93333,1.6 0.93334,1.06667 2.66667,1.06667 1.13334,0 1.8,-0.2 0.66667,-0.26667 1.26667,-0.66667 l 2.46667,7.66667 q -1.53334,0.73334 -3.33334,1.06667 -1.73333,0.4 -3.86667,0.4 -2.46666,0 -4.46666,-0.73333 -1.93334,-0.8 -3.26667,-2.13334 -3.13334,-3 -3.13334,-8.53334 z"
         style="font-weight:bold;font-family:'Product Sans';-inkscape-font-specification:'Product Sans Bold';fill:#ffffff"
         id="path15740-1-3-4-9-3" />
      <path
         d="M 337.47679,502.13418 Z"
         style="font-weight:bold;font-family:'Product Sans';-inkscape-font-specification:'Product Sans Bold';fill:#ffffff"
         id="path15742-7-8-6-8-8" />
      <path
         d="m 378.21007,503.20084 q -5.33333,0 -9.93334,-1.93333 -4.53333,-1.93334 -7.86667,-5.26667 -3.33333,-3.4 -5.26667,-7.93334 -1.86666,-4.6 -1.86666,-9.8 0,-5.20001 1.86666,-9.73334 1.93334,-4.6 5.26667,-7.93334 3.33334,-3.4 7.86667,-5.33334 4.60001,-1.93333 9.93334,-1.93333 5.33334,0 9.86668,1.93333 4.6,1.93334 7.93333,5.33334 3.33334,3.33334 5.20001,7.93334 1.93333,4.53333 1.93333,9.73334 0,5.2 -1.93333,9.8 -1.86667,4.53334 -5.20001,7.93334 -3.33333,3.33333 -7.93333,5.26667 -4.53334,1.93333 -9.86668,1.93333 z m 0,-8.53333 q 3.33334,0 6.20001,-1.20001 2.93333,-1.2 5.06667,-3.33333 2.2,-2.13333 3.4,-5.13334 1.26667,-3.06666 1.26667,-6.73333 0,-3.66667 -1.26667,-6.66667 -1.2,-3.06667 -3.4,-5.20001 -2.13334,-2.13333 -5.06667,-3.33333 -2.86667,-1.2 -6.20001,-1.2 -3.33333,0 -6.26667,1.2 -2.86666,1.2 -5.06667,3.33333 -2.13333,2.13334 -3.4,5.20001 -1.2,3 -1.2,6.66667 0,3.66667 1.2,6.73333 1.26667,3.00001 3.4,5.13334 2.20001,2.13333 5.06667,3.33333 2.93334,1.20001 6.26667,1.20001 z"
         style="font-weight:bold;font-family:'Product Sans';-inkscape-font-specification:'Product Sans Bold';fill:#ffffff"
         id="path15744-8-8-2-7-3" />
      <path
         d="m 429.47666,498.66751 h -0.53333 q -1.53333,1.86667 -3.73333,3.2 -2.13334,1.33333 -5.53334,1.33333 -2.53334,0 -4.8,-0.86666 -2.2,-0.8 -3.86667,-2.26667 -1.66667,-1.46667 -2.6,-3.53334 -0.93334,-2.06666 -0.93334,-4.53333 0,-2.53334 1,-4.53334 1,-2.06667 2.80001,-3.53333 1.8,-1.46667 4.2,-2.2 2.46667,-0.80001 5.33333,-0.80001 3.20001,0 5.26667,0.53334 2.06667,0.46667 3.4,1 v -1 q 0,-2.6 -2.06666,-4.26667 -2.06667,-1.73333 -5.13334,-1.73333 -4.53333,0 -7.66667,3.8 l -6.33334,-4.33334 q 5.20001,-6.53334 14.20001,-6.53334 7.60001,0 11.60001,3.60001 4,3.53333 4,10.53334 v 19.60001 h -8.60001 z m 0,-9.80001 q -1.53333,-0.73333 -3.2,-1.13333 -1.6,-0.46667 -3.53333,-0.46667 -3.13334,0 -4.86667,1.4 -1.66667,1.33334 -1.66667,3.33334 0,2 1.6,3.2 1.66667,1.2 3.8,1.2 1.73334,0 3.20001,-0.6 1.46666,-0.66667 2.46666,-1.66667 1.06667,-1.06667 1.6,-2.4 0.6,-1.4 0.6,-2.86667 z"
         style="font-weight:bold;font-family:'Product Sans';-inkscape-font-specification:'Product Sans Bold';fill:#ffffff"
         id="path15746-5-31-5-2-3" />
      <path
         d="m 445.01001,454.40082 h 8.73334 v 26.00001 h 0.4 l 10.93334,-10.93334 h 10.8 v 0.53334 l -12.13334,11.8 13.13334,19.80001 v 0.53334 h -10.33334 l -8.93334,-14.33334 -3.86666,3.8 v 10.53334 h -8.73334 z"
         style="font-weight:bold;font-family:'Product Sans';-inkscape-font-specification:'Product Sans Bold';fill:#ffffff"
         id="path15748-7-89-8-8-3" />
    </g>
    <path
       d="m 152.6038,172.38695 v -6.00007 h -2.04084 v -1.30614 h 5.45925 v 1.30614 h -2.04084 v 6.00007 z"
       style="font-weight:bold;font-size:51.9253px;line-height:1.25;font-family:'Product Sans';-inkscape-font-specification:'Product Sans Bold';white-space:pre;fill:#ffffff;stroke-width:0.196517"
       id="path3372" />
    <path
       d="m 156.22627,167.38689 h 1.25511 v 0.69388 h 0.0816 q 0.0918,-0.18367 0.2449,-0.33673 0.15306,-0.15307 0.33674,-0.26531 0.19388,-0.11225 0.40817,-0.17347 0.22449,-0.0612 0.43878,-0.0612 0.26531,0 0.44898,0.051 0.19388,0.051 0.32654,0.13265 l -0.35715,1.21431 q -0.12245,-0.0612 -0.27551,-0.0918 -0.14286,-0.0408 -0.35715,-0.0408 -0.27551,0 -0.50001,0.11225 -0.22449,0.10204 -0.38776,0.29592 -0.15306,0.19388 -0.2449,0.45919 -0.0816,0.25511 -0.0816,0.56123 v 2.44901 h -1.33675 z"
       style="font-weight:bold;font-size:51.9253px;line-height:1.25;font-family:'Product Sans';-inkscape-font-specification:'Product Sans Bold';white-space:pre;fill:#ffffff;stroke-width:0.196517"
       id="path3374" />
    <path
       d="m 163.83861,171.73388 h -0.0816 q -0.2347,0.37756 -0.63266,0.60205 -0.39796,0.21429 -0.90817,0.21429 -0.949,0 -1.41839,-0.58164 -0.45919,-0.58164 -0.45919,-1.55104 v -3.03065 h 1.33675 v 2.86738 q 0,0.54083 0.2347,0.80614 0.2449,0.2551 0.70409,0.2551 0.27551,0 0.4796,-0.11225 0.21429,-0.12245 0.35715,-0.31633 0.15306,-0.20408 0.22449,-0.46939 0.0816,-0.27551 0.0816,-0.58164 v -2.44901 h 1.33675 v 5.00006 h -1.25511 z"
       style="font-weight:bold;font-size:51.9253px;line-height:1.25;font-family:'Product Sans';-inkscape-font-specification:'Product Sans Bold';white-space:pre;fill:#ffffff;stroke-width:0.196517"
       id="path3376" />
    <path
       d="m 168.16517,172.55022 q -0.4898,0 -0.87756,-0.12245 -0.37755,-0.12245 -0.66327,-0.31633 -0.27551,-0.20408 -0.46939,-0.45919 -0.19388,-0.26531 -0.29593,-0.53062 l 1.1939,-0.51021 q 0.17347,0.38776 0.45919,0.58164 0.29592,0.18368 0.65306,0.18368 0.36736,0 0.58164,-0.13266 0.21429,-0.13265 0.21429,-0.31633 0,-0.20408 -0.18367,-0.32653 -0.17347,-0.13266 -0.61226,-0.2347 l -0.70409,-0.15306 q -0.23469,-0.051 -0.4898,-0.16327 -0.2449,-0.11225 -0.44898,-0.28572 -0.20409,-0.17347 -0.33674,-0.41837 -0.13266,-0.2449 -0.13266,-0.57144 0,-0.36735 0.15307,-0.65307 0.16326,-0.28571 0.43878,-0.4796 0.27551,-0.20408 0.64286,-0.30612 0.37756,-0.11225 0.80613,-0.11225 0.7143,0 1.27553,0.28572 0.56123,0.27551 0.82654,0.88777 l -1.15307,0.46939 q -0.14286,-0.29592 -0.41838,-0.42858 -0.27551,-0.13265 -0.55102,-0.13265 -0.28572,0 -0.50001,0.12245 -0.21429,0.11224 -0.21429,0.29592 0,0.17347 0.17347,0.27551 0.18368,0.10205 0.48981,0.18368 l 0.76531,0.18368 q 0.76532,0.18367 1.13267,0.59184 0.37756,0.39796 0.37756,0.94899 0,0.32654 -0.15307,0.62246 -0.15306,0.29592 -0.43878,0.53062 -0.27551,0.22449 -0.67348,0.35715 -0.38776,0.13265 -0.86736,0.13265 z"
       style="font-weight:bold;font-size:51.9253px;line-height:1.25;font-family:'Product Sans';-inkscape-font-specification:'Product Sans Bold';white-space:pre;fill:#ffffff;stroke-width:0.196517"
       id="path3378" />
    <path
       d="m 171.61419,168.52976 h -0.87757 v -1.14287 h 0.87757 v -1.53063 h 1.33675 v 1.53063 h 1.2245 v 1.14287 h -1.2245 v 1.9388 q 0,0.17347 0.0306,0.32654 0.0408,0.14286 0.14286,0.2449 0.14286,0.16326 0.40817,0.16326 0.17347,0 0.27551,-0.0306 0.10204,-0.0408 0.19388,-0.10204 l 0.37756,1.17349 q -0.2347,0.11224 -0.51021,0.16326 -0.26531,0.0612 -0.59185,0.0612 -0.37755,0 -0.68368,-0.11225 -0.29592,-0.12245 -0.5,-0.32653 -0.4796,-0.45919 -0.4796,-1.30614 z"
       style="font-weight:bold;font-size:51.9253px;line-height:1.25;font-family:'Product Sans';-inkscape-font-specification:'Product Sans Bold';white-space:pre;fill:#ffffff;stroke-width:0.196517"
       id="path3380" />
    <path
       d="m 179.83876,171.18286 q -0.34694,0.61225 -0.93878,0.98981 -0.58164,0.37755 -1.42859,0.37755 -0.57144,0 -1.06124,-0.19388 -0.4796,-0.20408 -0.83675,-0.56123 -0.35715,-0.35715 -0.56123,-0.83675 -0.19388,-0.4898 -0.19388,-1.07144 0,-0.54082 0.19388,-1.02042 0.19388,-0.4898 0.54082,-0.84695 0.34695,-0.36735 0.81634,-0.58164 0.4796,-0.21429 1.05103,-0.21429 0.60205,0 1.07145,0.20408 0.46939,0.19388 0.78572,0.55103 0.31633,0.34695 0.4796,0.82654 0.16327,0.4796 0.16327,1.04083 0,0.0714 0,0.12245 -0.0102,0.0612 -0.0102,0.11225 -0.0102,0.051 -0.0102,0.11225 h -3.76536 q 0.0408,0.30612 0.16327,0.53062 0.13266,0.21429 0.31633,0.36735 0.19388,0.14286 0.41837,0.21429 0.2245,0.0612 0.45919,0.0612 0.45919,0 0.75512,-0.20408 0.30612,-0.21429 0.47959,-0.53062 z m -1.2143,-1.9388 q -0.0102,-0.13266 -0.0918,-0.29593 -0.0714,-0.16326 -0.22449,-0.30612 -0.14286,-0.14286 -0.36735,-0.2347 -0.21429,-0.0918 -0.52042,-0.0918 -0.42857,0 -0.75511,0.2449 -0.32653,0.2449 -0.45919,0.68369 z"
       style="font-weight:bold;font-size:51.9253px;line-height:1.25;font-family:'Product Sans';-inkscape-font-specification:'Product Sans Bold';white-space:pre;fill:#ffffff;stroke-width:0.196517"
       id="path3382" />
    <path
       d="m 184.5531,171.78491 h -0.0816 q -0.18368,0.31633 -0.57144,0.54082 -0.38776,0.22449 -0.9592,0.22449 -0.47959,0 -0.91838,-0.19388 -0.42857,-0.20408 -0.76531,-0.55103 -0.32654,-0.35714 -0.52042,-0.84695 -0.19388,-0.4898 -0.19388,-1.07144 0,-0.58164 0.19388,-1.07144 0.19388,-0.4898 0.52042,-0.83675 0.33674,-0.35715 0.76531,-0.55103 0.43879,-0.20408 0.91838,-0.20408 0.57144,0 0.9592,0.22449 0.38776,0.2245 0.57144,0.54083 h 0.0816 l -0.0816,-0.7143 v -2.1939 h 1.33675 v 7.30621 h -1.25512 z m -1.33675,-0.4694 q 0.26531,0 0.5,-0.0918 0.24491,-0.10204 0.42858,-0.28571 0.18368,-0.18368 0.29592,-0.44899 0.11225,-0.26531 0.11225,-0.60205 0,-0.33674 -0.11225,-0.60205 -0.11224,-0.26531 -0.29592,-0.44898 -0.18367,-0.18368 -0.42858,-0.27552 -0.23469,-0.10204 -0.5,-0.10204 -0.26531,0 -0.51021,0.10204 -0.2347,0.10204 -0.41838,0.28572 -0.18367,0.18368 -0.29592,0.44899 -0.11224,0.26531 -0.11224,0.59184 0,0.32654 0.11224,0.59185 0.11225,0.26531 0.29592,0.44898 0.18368,0.18368 0.41838,0.28572 0.2449,0.10204 0.51021,0.10204 z"
       style="font-weight:bold;font-size:51.9253px;line-height:1.25;font-family:'Product Sans';-inkscape-font-specification:'Product Sans Bold';white-space:pre;fill:#ffffff;stroke-width:0.196517"
       id="path3384" />
    <path
       d="M 186.37964,172.38695 Z"
       style="font-weight:bold;font-size:51.9253px;line-height:1.25;font-family:'Product Sans';-inkscape-font-specification:'Product Sans Bold';white-space:pre;fill:#ffffff;stroke-width:0.196517"
       id="path3386" />
    <path
       d="m 191.28785,172.55022 q -0.46939,0 -0.89797,-0.13265 -0.42858,-0.13266 -0.78573,-0.39797 -0.35714,-0.26531 -0.62245,-0.64286 -0.26531,-0.38776 -0.41837,-0.89797 l 1.29593,-0.51022 q 0.14286,0.55103 0.50001,0.91838 0.35714,0.35715 0.93878,0.35715 0.21429,0 0.40817,-0.051 0.20409,-0.0612 0.35715,-0.16327 0.16327,-0.11224 0.25511,-0.27551 0.0918,-0.16327 0.0918,-0.37756 0,-0.20408 -0.0714,-0.36735 -0.0714,-0.16327 -0.2449,-0.30612 -0.16326,-0.14286 -0.43878,-0.27552 -0.26531,-0.13265 -0.66327,-0.27551 l -0.44899,-0.16327 q -0.29592,-0.10204 -0.60205,-0.27551 -0.29592,-0.17348 -0.54082,-0.41838 -0.2449,-0.2449 -0.40817,-0.57143 -0.15306,-0.33674 -0.15306,-0.75512 0,-0.42857 0.16327,-0.79592 0.17347,-0.37756 0.47959,-0.65307 0.31633,-0.28572 0.74491,-0.43878 0.43878,-0.16327 0.9694,-0.16327 0.55103,0 0.94899,0.15306 0.40817,0.14286 0.68369,0.37756 0.28571,0.22449 0.45919,0.5 0.17347,0.27552 0.2551,0.52042 l -1.2143,0.51021 q -0.10204,-0.30613 -0.37756,-0.55103 -0.26531,-0.2449 -0.7347,-0.2449 -0.44899,0 -0.74491,0.21429 -0.29592,0.20408 -0.29592,0.54082 0,0.32654 0.28572,0.56123 0.28572,0.2245 0.90817,0.43879 l 0.45919,0.15306 q 0.43878,0.15306 0.79593,0.35715 0.36735,0.19388 0.62246,0.46939 0.26531,0.27551 0.39796,0.63266 0.14286,0.34695 0.14286,0.80613 0,0.57144 -0.23469,0.98981 -0.2245,0.40817 -0.58164,0.67348 -0.35715,0.26531 -0.80614,0.39797 -0.44898,0.13265 -0.87756,0.13265 z"
       style="font-weight:bold;font-size:51.9253px;line-height:1.25;font-family:'Product Sans';-inkscape-font-specification:'Product Sans Bold';white-space:pre;fill:#ffffff;stroke-width:0.196517"
       id="path3388" />
    <path
       d="m 194.75727,165.08074 h 1.33676 v 2.05104 l -0.0816,0.90818 h 0.0816 q 0.21428,-0.35715 0.61225,-0.58164 0.40817,-0.2347 0.90817,-0.2347 0.9694,0 1.42859,0.57144 0.4694,0.57143 0.4694,1.56124 v 3.03065 h -1.33676 v -2.86738 q 0,-0.52042 -0.2449,-0.78573 -0.2449,-0.27551 -0.68368,-0.27551 -0.27551,0 -0.4898,0.12245 -0.21429,0.11225 -0.36735,0.31633 -0.14286,0.20409 -0.2245,0.4796 -0.0714,0.26531 -0.0714,0.57144 v 2.4388 h -1.33676 z"
       style="font-weight:bold;font-size:51.9253px;line-height:1.25;font-family:'Product Sans';-inkscape-font-specification:'Product Sans Bold';white-space:pre;fill:#ffffff;stroke-width:0.196517"
       id="path3390" />
    <path
       d="m 204.07371,171.73388 h -0.0816 q -0.2347,0.37756 -0.63266,0.60205 -0.39797,0.21429 -0.90818,0.21429 -0.94899,0 -1.41838,-0.58164 -0.45919,-0.58164 -0.45919,-1.55104 v -3.03065 h 1.33675 v 2.86738 q 0,0.54083 0.2347,0.80614 0.2449,0.2551 0.70409,0.2551 0.27551,0 0.4796,-0.11225 0.21428,-0.12245 0.35714,-0.31633 0.15307,-0.20408 0.2245,-0.46939 0.0816,-0.27551 0.0816,-0.58164 v -2.44901 h 1.33675 v 5.00006 h -1.25512 z"
       style="font-weight:bold;font-size:51.9253px;line-height:1.25;font-family:'Product Sans';-inkscape-font-specification:'Product Sans Bold';white-space:pre;fill:#ffffff;stroke-width:0.196517"
       id="path3392" />
    <path
       d="m 212.81871,167.38689 v 1.14287 h -1.16328 v 3.85719 h -1.33675 v -3.85719 h -1.88778 v 3.85719 h -1.33676 v -3.85719 h -0.89797 v -1.14287 h 0.89797 v -0.4898 q 0,-0.45919 0.13266,-0.80614 0.14286,-0.35714 0.39796,-0.59184 0.25511,-0.2449 0.60205,-0.36735 0.34694,-0.13266 0.76532,-0.13266 0.20408,0 0.32653,0.0204 0.12245,0.0204 0.2347,0.0612 l -0.0816,1.25512 q -0.0714,-0.0306 -0.16327,-0.051 -0.0918,-0.0204 -0.2347,-0.0204 -0.29592,0 -0.46939,0.19388 -0.17347,0.18367 -0.17347,0.52041 v 0.40817 h 1.88778 v -0.31633 q 0,-0.98981 0.52041,-1.51023 0.52042,-0.52041 1.51022,-0.52041 h 2.53065 v 7.34703 h -1.33675 v -6.11232 h -1.18369 q -0.32654,0 -0.52042,0.20408 -0.18367,0.19388 -0.18367,0.57144 v 0.33674 z"
       style="font-weight:bold;font-size:51.9253px;line-height:1.25;font-family:'Product Sans';-inkscape-font-specification:'Product Sans Bold';white-space:pre;fill:#ffffff;stroke-width:0.196517"
       id="path3394" />
    <path
       d="m 220.70655,171.18286 q -0.34694,0.61225 -0.93878,0.98981 -0.58164,0.37755 -1.42859,0.37755 -0.57144,0 -1.06124,-0.19388 -0.4796,-0.20408 -0.83675,-0.56123 -0.35715,-0.35715 -0.56123,-0.83675 -0.19388,-0.4898 -0.19388,-1.07144 0,-0.54082 0.19388,-1.02042 0.19388,-0.4898 0.54082,-0.84695 0.34695,-0.36735 0.81634,-0.58164 0.4796,-0.21429 1.05103,-0.21429 0.60205,0 1.07145,0.20408 0.46939,0.19388 0.78572,0.55103 0.31633,0.34695 0.4796,0.82654 0.16327,0.4796 0.16327,1.04083 0,0.0714 0,0.12245 -0.0102,0.0612 -0.0102,0.11225 -0.0102,0.051 -0.0102,0.11225 h -3.76536 q 0.0408,0.30612 0.16327,0.53062 0.13266,0.21429 0.31633,0.36735 0.19388,0.14286 0.41837,0.21429 0.2245,0.0612 0.45919,0.0612 0.45919,0 0.75512,-0.20408 0.30612,-0.21429 0.47959,-0.53062 z m -1.2143,-1.9388 q -0.0102,-0.13266 -0.0918,-0.29593 -0.0714,-0.16326 -0.22449,-0.30612 -0.14286,-0.14286 -0.36735,-0.2347 -0.21429,-0.0918 -0.52042,-0.0918 -0.42857,0 -0.75511,0.2449 -0.32653,0.2449 -0.45919,0.68369 z"
       style="font-weight:bold;font-size:51.9253px;line-height:1.25;font-family:'Product Sans';-inkscape-font-specification:'Product Sans Bold';white-space:pre;fill:#ffffff;stroke-width:0.196517"
       id="path3396" />
    <path
       d="m 221.64534,167.38689 h 1.25512 v 0.69388 h 0.0816 q 0.0918,-0.18367 0.2449,-0.33673 0.15306,-0.15307 0.33674,-0.26531 0.19388,-0.11225 0.40817,-0.17347 0.22449,-0.0612 0.43878,-0.0612 0.26531,0 0.44898,0.051 0.19388,0.051 0.32654,0.13265 l -0.35715,1.21431 q -0.12245,-0.0612 -0.27551,-0.0918 -0.14286,-0.0408 -0.35715,-0.0408 -0.27551,0 -0.5,0.11225 -0.2245,0.10204 -0.38777,0.29592 -0.15306,0.19388 -0.2449,0.45919 -0.0816,0.25511 -0.0816,0.56123 v 2.44901 h -1.33675 z"
       style="font-weight:bold;font-size:51.9253px;line-height:1.25;font-family:'Product Sans';-inkscape-font-specification:'Product Sans Bold';white-space:pre;fill:#ffffff;stroke-width:0.196517"
       id="path3398" />
  </g>
</svg>
