<?xml version="1.0" encoding="UTF-8" standalone="no"?>
<!-- Created with Inkscape (http://www.inkscape.org/) -->

<svg
   width="84.272316mm"
   height="23.017199mm"
   viewBox="0 0 84.272316 23.017199"
   version="1.1"
   id="svg2393"
   inkscape:version="1.2.1 (9c6d41e410, 2022-07-14)"
   sodipodi:docname="oak-functions-negative-colour.svg"
   xmlns:inkscape="http://www.inkscape.org/namespaces/inkscape"
   xmlns:sodipodi="http://sodipodi.sourceforge.net/DTD/sodipodi-0.dtd"
   xmlns="http://www.w3.org/2000/svg"
   xmlns:svg="http://www.w3.org/2000/svg">
  <sodipodi:namedview
     id="namedview2395"
     pagecolor="#ffffff"
     bordercolor="#666666"
     borderopacity="1.0"
     inkscape:pageshadow="2"
     inkscape:pageopacity="0.0"
     inkscape:pagecheckerboard="0"
     inkscape:document-units="mm"
     showgrid="false"
     fit-margin-top="0"
     fit-margin-left="0"
     fit-margin-right="0"
     fit-margin-bottom="0"
     inkscape:zoom="0.72782688"
     inkscape:cx="610.72215"
     inkscape:cy="498.74498"
     inkscape:window-width="2560"
     inkscape:window-height="1355"
     inkscape:window-x="1080"
     inkscape:window-y="0"
     inkscape:window-maximized="1"
     inkscape:current-layer="layer1"
     inkscape:showpageshadow="2"
     inkscape:deskcolor="#d1d1d1" />
  <defs
     id="defs2390">
    <rect
       x="117.74503"
       y="441.03894"
       width="413.86978"
       height="106.50236"
       id="rect24124-0-3-9-4" />
  </defs>
  <g
     inkscape:label="Layer 1"
     inkscape:groupmode="layer"
     id="layer1"
     transform="translate(80.669821,-17.209883)">
    <g
       id="g1093-4-9-0"
       transform="matrix(0.71967634,0,0,0.71967634,-109.66275,5.7279483)">
      <path
         id="path9713-6-2-2-3-3-4-6-4"
         style="fill:#ffbf00;stroke:#737373;stroke-width:0.18087"
         d="m 51.78657,23.616285 a 3.4338517,4.666791 0 0 1 -3.433852,4.666791 3.4338517,4.666791 0 0 1 -3.433851,-4.666791 3.4338517,4.666791 0 0 1 3.433851,-4.666791 3.4338517,4.666791 0 0 1 3.433852,4.666791 z" />
      <g
         id="g1086-4-2-22"
         transform="translate(0.00621353)">
        <path
           style="fill:#34a852;fill-opacity:1;stroke:#6d6d6d;stroke-width:0.18087;stroke-linecap:butt;stroke-linejoin:round;stroke-miterlimit:4;stroke-dasharray:none;stroke-opacity:1"
           d="m 40.370287,24.132384 7.070141,-0.107451 0.0395,10.637571 c 0,0 -6.003695,0.21491 -7.109642,-10.53012 z"
           id="path9925-6-6-9-6-5-4-1-2"
           sodipodi:nodetypes="cccc" />
        <path
           style="fill:#34a852;fill-opacity:1;stroke:#737373;stroke-width:0.18087;stroke-linecap:butt;stroke-linejoin:round;stroke-miterlimit:4;stroke-dasharray:none;stroke-opacity:1"
           d="m 56.322723,24.132381 -7.070141,-0.107451 -0.0395,10.637574 c 0,0 6.003695,0.2149 7.109641,-10.530123 z"
           id="path9925-6-6-9-6-5-6-7-7-05"
           sodipodi:nodetypes="cccc" />
      </g>
      <path
         id="path10128-9-6-0-6-5-6-8-52"
         style="fill:#137333;fill-opacity:1;stroke:#737373;stroke-width:0.18087;stroke-miterlimit:4;stroke-dasharray:none;stroke-opacity:1"
         d="m 48.350392,16.044738 a 7.9903085,6.9200343 0 0 0 -7.935184,6.151089 h 15.875021 a 7.9903085,6.9200343 0 0 0 -7.939837,-6.151089 z" />
    </g>
    <g
       aria-label="Project Oak"
       transform="matrix(0.19557787,0,0,0.19557787,-89.664031,-69.419964)"
       id="text24122-3-5-9"
       style="font-size:66.6667px;line-height:1.25;white-space:pre;shape-inside:url(#rect24124);fill:#ffffff">
      <path
         d="m 122.54414,502.13418 v -47.73336 h 16.80001 q 3.4,0 6.33334,1.13333 3,1.06667 5.2,3.06667 2.2,2 3.46667,4.8 1.26667,2.73334 1.26667,6.06667 0,3.4 -1.26667,6.20001 -1.26667,2.73333 -3.46667,4.73333 -2.2,2 -5.2,3.13334 -2.93334,1.06666 -6.33334,1.06666 h -7.8 v 17.53335 z m 16.93335,-26.06668 q 3.53333,0 5.33333,-2.00001 1.8,-2 1.8,-4.6 0,-1.26667 -0.46666,-2.46667 -0.4,-1.2 -1.33334,-2.06666 -0.86667,-0.93334 -2.2,-1.46667 -1.33333,-0.53333 -3.13333,-0.53333 h -7.93334 v 13.13334 z"
         style="font-weight:bold;font-family:'Product Sans';-inkscape-font-specification:'Product Sans Bold';fill:#ffffff"
         id="path15728-1-7-0" />
      <path
         d="m 160.9441,469.46749 h 8.20001 v 4.53334 h 0.53333 q 0.6,-1.2 1.6,-2.2 1,-1 2.2,-1.73334 1.26667,-0.73333 2.66667,-1.13333 1.46667,-0.4 2.86667,-0.4 1.73333,0 2.93333,0.33333 1.26667,0.33334 2.13334,0.86667 l -2.33334,7.93334 q -0.8,-0.4 -1.8,-0.6 -0.93333,-0.26667 -2.33333,-0.26667 -1.8,0 -3.26667,0.73333 -1.46667,0.66667 -2.53334,1.93334 -1,1.26666 -1.6,3 -0.53333,1.66667 -0.53333,3.66667 v 16.00001 h -8.73334 z"
         style="font-weight:bold;font-family:'Product Sans';-inkscape-font-specification:'Product Sans Bold';fill:#ffffff"
         id="path15730-7-4-2" />
      <path
         d="m 201.54405,468.40082 q 3.8,0 6.93334,1.33334 3.2,1.26667 5.46667,3.6 2.33333,2.26667 3.6,5.46667 1.33333,3.2 1.33333,7 0,3.80001 -1.33333,7.00001 -1.26667,3.2 -3.6,5.53333 -2.26667,2.26667 -5.46667,3.60001 -3.13334,1.26666 -6.93334,1.26666 -3.8,0 -7,-1.26666 -3.13334,-1.33334 -5.46667,-3.60001 -2.26667,-2.33333 -3.60001,-5.53333 -1.26666,-3.2 -1.26666,-7.00001 0,-3.8 1.26666,-7 1.33334,-3.2 3.60001,-5.46667 2.33333,-2.33333 5.46667,-3.6 3.2,-1.33334 7,-1.33334 z m 0,26.73335 q 1.66667,0 3.2,-0.6 1.6,-0.66666 2.8,-1.86667 1.2,-1.2 1.86667,-2.93333 0.73333,-1.73333 0.73333,-3.93334 0,-2.2 -0.73333,-3.93333 -0.66667,-1.73334 -1.86667,-2.93334 -1.2,-1.2 -2.8,-1.8 -1.53333,-0.66666 -3.2,-0.66666 -1.73333,0 -3.26667,0.66666 -1.53333,0.6 -2.73333,1.8 -1.2,1.2 -1.93334,2.93334 -0.66666,1.73333 -0.66666,3.93333 0,2.20001 0.66666,3.93334 0.73334,1.73333 1.93334,2.93333 1.2,1.20001 2.73333,1.86667 1.53334,0.6 3.26667,0.6 z"
         style="font-weight:bold;font-family:'Product Sans';-inkscape-font-specification:'Product Sans Bold';fill:#ffffff"
         id="path15732-5-18-83" />
      <path
         d="m 219.41054,508.53418 q 0.53333,0.33333 1,0.46667 0.53333,0.13333 1.26667,0.13333 3,0 3,-3.93334 v -35.73335 h 8.73333 v 36.00002 q 0,3.2 -0.86666,5.4 -0.86667,2.26667 -2.33334,3.66667 -1.46666,1.4 -3.4,2 -1.93333,0.66667 -4.13333,0.66667 -1.66667,0 -3.00001,-0.26667 -1.33333,-0.2 -2.46666,-0.66666 z m 9.6,-43.80002 q -1.13333,0 -2.2,-0.4 -1,-0.46667 -1.8,-1.2 -0.73333,-0.80001 -1.2,-1.80001 -0.4,-1 -0.4,-2.2 0,-1.2 0.4,-2.2 0.46667,-1 1.2,-1.73333 0.8,-0.8 1.8,-1.2 1.06667,-0.46667 2.2,-0.46667 2.33334,0 4,1.66667 1.66667,1.6 1.66667,3.93333 0,2.33334 -1.66667,4.00001 -1.66666,1.6 -4,1.6 z"
         style="font-weight:bold;font-family:'Product Sans';-inkscape-font-specification:'Product Sans Bold';fill:#ffffff"
         id="path15734-9-5-8" />
      <path
         d="m 272.01042,494.26751 q -2.26667,4 -6.13334,6.46667 -3.8,2.46666 -9.33334,2.46666 -3.73333,0 -6.93333,-1.26666 -3.13334,-1.33334 -5.46667,-3.66667 -2.33334,-2.33334 -3.66667,-5.46667 -1.26667,-3.2 -1.26667,-7.00001 0,-3.53333 1.26667,-6.66667 1.26667,-3.2 3.53333,-5.53333 2.26667,-2.4 5.33334,-3.8 3.13334,-1.40001 6.86667,-1.40001 3.93334,0 7.00001,1.33334 3.06666,1.26667 5.13333,3.6 2.06667,2.26667 3.13334,5.4 1.06666,3.13334 1.06666,6.80001 0,0.46666 0,0.8 -0.0667,0.4 -0.0667,0.73333 -0.0667,0.33333 -0.0667,0.73334 h -24.60001 q 0.26666,2 1.06666,3.46666 0.86667,1.4 2.06667,2.40001 1.26667,0.93333 2.73334,1.4 1.46666,0.4 3,0.4 3,0 4.93333,-1.33334 2.00001,-1.4 3.13334,-3.46667 z m -7.93334,-12.66668 q -0.0667,-0.86667 -0.6,-1.93333 -0.46666,-1.06667 -1.46667,-2 -0.93333,-0.93334 -2.4,-1.53334 -1.4,-0.6 -3.4,-0.6 -2.8,0 -4.93333,1.6 -2.13334,1.6 -3.00001,4.46667 z"
         style="font-weight:bold;font-family:'Product Sans';-inkscape-font-specification:'Product Sans Bold';fill:#ffffff"
         id="path15736-6-97-04" />
      <path
         d="m 309.47703,493.80084 q -2.13333,4.13333 -6,6.8 -3.8,2.6 -9.53334,2.6 -3.8,0 -7,-1.26666 -3.13334,-1.33334 -5.46667,-3.66667 -2.26667,-2.33334 -3.6,-5.46667 -1.26667,-3.2 -1.26667,-7.00001 0,-3.8 1.26667,-7 1.33333,-3.2 3.6,-5.46667 2.33333,-2.33333 5.46667,-3.6 3.2,-1.33334 7,-1.33334 5.66667,0 9.53334,2.60001 3.86667,2.6 5.66667,6.73333 l -8,3.33334 q -1.13334,-2.26667 -2.93334,-3.4 -1.73333,-1.2 -4.4,-1.2 -1.73333,0 -3.26667,0.66666 -1.53333,0.66667 -2.73333,1.86667 -1.13334,1.2 -1.8,2.93334 -0.66667,1.73333 -0.66667,3.86666 0,2.13334 0.66667,3.86667 0.66666,1.73334 1.8,2.93334 1.2,1.2 2.73333,1.86667 1.53334,0.66666 3.26667,0.66666 2.73333,0 4.6,-1.2 1.93334,-1.26667 3.06667,-3.6 z"
         style="font-weight:bold;font-family:'Product Sans';-inkscape-font-specification:'Product Sans Bold';fill:#ffffff"
         id="path15738-2-5-0" />
      <path
         d="m 318.07685,476.93416 h -5.73333 v -7.46667 h 5.73333 v -10 h 8.73334 v 10 h 8 v 7.46667 h -8 v 12.66668 q 0,1.13333 0.2,2.13333 0.26667,0.93333 0.93333,1.6 0.93334,1.06667 2.66667,1.06667 1.13334,0 1.8,-0.2 0.66667,-0.26667 1.26667,-0.66667 l 2.46667,7.66667 q -1.53334,0.73334 -3.33334,1.06667 -1.73333,0.4 -3.86667,0.4 -2.46666,0 -4.46666,-0.73333 -1.93334,-0.8 -3.26667,-2.13334 -3.13334,-3 -3.13334,-8.53334 z"
         style="font-weight:bold;font-family:'Product Sans';-inkscape-font-specification:'Product Sans Bold';fill:#ffffff"
         id="path15740-1-3-9" />
      <path
         d="M 337.47679,502.13418 Z"
         style="font-weight:bold;font-family:'Product Sans';-inkscape-font-specification:'Product Sans Bold';fill:#ffffff"
         id="path15742-7-8-1" />
      <path
         d="m 378.21007,503.20084 q -5.33333,0 -9.93334,-1.93333 -4.53333,-1.93334 -7.86667,-5.26667 -3.33333,-3.4 -5.26667,-7.93334 -1.86666,-4.6 -1.86666,-9.8 0,-5.20001 1.86666,-9.73334 1.93334,-4.6 5.26667,-7.93334 3.33334,-3.4 7.86667,-5.33334 4.60001,-1.93333 9.93334,-1.93333 5.33334,0 9.86668,1.93333 4.6,1.93334 7.93333,5.33334 3.33334,3.33334 5.20001,7.93334 1.93333,4.53333 1.93333,9.73334 0,5.2 -1.93333,9.8 -1.86667,4.53334 -5.20001,7.93334 -3.33333,3.33333 -7.93333,5.26667 -4.53334,1.93333 -9.86668,1.93333 z m 0,-8.53333 q 3.33334,0 6.20001,-1.20001 2.93333,-1.2 5.06667,-3.33333 2.2,-2.13333 3.4,-5.13334 1.26667,-3.06666 1.26667,-6.73333 0,-3.66667 -1.26667,-6.66667 -1.2,-3.06667 -3.4,-5.20001 -2.13334,-2.13333 -5.06667,-3.33333 -2.86667,-1.2 -6.20001,-1.2 -3.33333,0 -6.26667,1.2 -2.86666,1.2 -5.06667,3.33333 -2.13333,2.13334 -3.4,5.20001 -1.2,3 -1.2,6.66667 0,3.66667 1.2,6.73333 1.26667,3.00001 3.4,5.13334 2.20001,2.13333 5.06667,3.33333 2.93334,1.20001 6.26667,1.20001 z"
         style="font-weight:bold;font-family:'Product Sans';-inkscape-font-specification:'Product Sans Bold';fill:#ffffff"
         id="path15744-8-8-9" />
      <path
         d="m 429.47666,498.66751 h -0.53333 q -1.53333,1.86667 -3.73333,3.2 -2.13334,1.33333 -5.53334,1.33333 -2.53334,0 -4.8,-0.86666 -2.2,-0.8 -3.86667,-2.26667 -1.66667,-1.46667 -2.6,-3.53334 -0.93334,-2.06666 -0.93334,-4.53333 0,-2.53334 1,-4.53334 1,-2.06667 2.80001,-3.53333 1.8,-1.46667 4.2,-2.2 2.46667,-0.80001 5.33333,-0.80001 3.20001,0 5.26667,0.53334 2.06667,0.46667 3.4,1 v -1 q 0,-2.6 -2.06666,-4.26667 -2.06667,-1.73333 -5.13334,-1.73333 -4.53333,0 -7.66667,3.8 l -6.33334,-4.33334 q 5.20001,-6.53334 14.20001,-6.53334 7.60001,0 11.60001,3.60001 4,3.53333 4,10.53334 v 19.60001 h -8.60001 z m 0,-9.80001 q -1.53333,-0.73333 -3.2,-1.13333 -1.6,-0.46667 -3.53333,-0.46667 -3.13334,0 -4.86667,1.4 -1.66667,1.33334 -1.66667,3.33334 0,2 1.6,3.2 1.66667,1.2 3.8,1.2 1.73334,0 3.20001,-0.6 1.46666,-0.66667 2.46666,-1.66667 1.06667,-1.06667 1.6,-2.4 0.6,-1.4 0.6,-2.86667 z"
         style="font-weight:bold;font-family:'Product Sans';-inkscape-font-specification:'Product Sans Bold';fill:#ffffff"
         id="path15746-5-31-6" />
      <path
         d="m 445.01001,454.40082 h 8.73334 v 26.00001 h 0.4 l 10.93334,-10.93334 h 10.8 v 0.53334 l -12.13334,11.8 13.13334,19.80001 v 0.53334 h -10.33334 l -8.93334,-14.33334 -3.86666,3.8 v 10.53334 h -8.73334 z"
         style="font-weight:bold;font-family:'Product Sans';-inkscape-font-specification:'Product Sans Bold';fill:#ffffff"
         id="path15748-7-89-2" />
    </g>
    <path
       d="m -62.790217,40.227082 q -0.816336,0 -1.520428,-0.295921 -0.693887,-0.295922 -1.204098,-0.806133 -0.51021,-0.520415 -0.806131,-1.214302 -0.285719,-0.704089 -0.285719,-1.500019 0,-0.795928 0.285719,-1.489815 0.295921,-0.704091 0.806131,-1.214301 0.510211,-0.520415 1.204098,-0.816339 0.704092,-0.295921 1.520428,-0.295921 0.816336,0 1.510223,0.295921 0.704091,0.295924 1.214301,0.816339 0.510212,0.51021 0.79593,1.214301 0.295921,0.693887 0.295921,1.489815 0,0.79593 -0.295921,1.500019 -0.285718,0.693887 -0.79593,1.214302 -0.51021,0.510211 -1.214301,0.806133 -0.693887,0.295921 -1.510223,0.295921 z m 0,-1.306138 q 0.51021,0 0.948991,-0.183676 0.448987,-0.183677 0.77552,-0.51021 0.33674,-0.326535 0.520417,-0.785725 0.19388,-0.469395 0.19388,-1.030626 0,-0.561232 -0.19388,-1.020422 -0.183677,-0.469393 -0.520417,-0.795928 -0.326533,-0.326535 -0.77552,-0.510211 -0.438781,-0.183675 -0.948991,-0.183675 -0.510212,0 -0.959197,0.183675 -0.438781,0.183676 -0.775519,0.510211 -0.326535,0.326535 -0.520415,0.795928 -0.183677,0.45919 -0.183677,1.020422 0,0.561231 0.183677,1.030626 0.19388,0.45919 0.520415,0.785725 0.336738,0.326533 0.775519,0.51021 0.448985,0.183676 0.959197,0.183676 z"
       style="font-weight:bold;font-size:51.9253px;line-height:1.25;font-family:'Product Sans';-inkscape-font-specification:'Product Sans Bold';white-space:pre;fill:#ffffff;stroke-width:0.196517"
       id="path2563" />
    <path
       d="m -54.943191,39.533196 h -0.08163 q -0.234696,0.285718 -0.571436,0.489803 -0.326533,0.204083 -0.84695,0.204083 -0.38776,0 -0.734703,-0.132653 -0.336738,-0.122452 -0.591843,-0.346945 -0.255107,-0.224491 -0.397965,-0.540823 -0.14286,-0.31633 -0.14286,-0.693887 0,-0.387759 0.153063,-0.693886 0.153063,-0.31633 0.428578,-0.540823 0.275514,-0.224492 0.642865,-0.336738 0.377557,-0.122452 0.816337,-0.122452 0.489803,0 0.806133,0.08163 0.316331,0.07143 0.520415,0.153063 V 36.90051 q 0,-0.397965 -0.31633,-0.65307 -0.31633,-0.26531 -0.785725,-0.26531 -0.693887,0 -1.173485,0.58164 l -0.969399,-0.663273 q 0.795928,-1.000013 2.173497,-1.000013 1.16328,0 1.775533,0.551026 0.612253,0.540823 0.612253,1.612266 v 3.00004 h -1.316344 z m 0,-1.50002 q -0.234697,-0.112245 -0.489802,-0.173471 -0.244902,-0.07143 -0.540823,-0.07143 -0.479598,0 -0.744908,0.214289 -0.255105,0.204083 -0.255105,0.510209 0,0.306127 0.244902,0.489804 0.255104,0.183675 0.581639,0.183675 0.26531,0 0.489802,-0.09184 0.224493,-0.102043 0.377556,-0.255107 0.163267,-0.163266 0.244902,-0.367351 0.09184,-0.214288 0.09184,-0.438782 z"
       style="font-weight:bold;font-size:51.9253px;line-height:1.25;font-family:'Product Sans';-inkscape-font-specification:'Product Sans Bold';white-space:pre;fill:#ffffff;stroke-width:0.196517"
       id="path2565" />
    <path
       d="m -52.565611,32.757597 h 1.336754 v 3.979645 h 0.06123 l 1.673491,-1.673492 h 1.653083 v 0.08163 l -1.857168,1.806146 2.010231,3.030653 v 0.08163 h -1.581655 l -1.367364,-2.193906 -0.591843,0.581639 v 1.612267 h -1.336754 z"
       style="font-weight:bold;font-size:51.9253px;line-height:1.25;font-family:'Product Sans';-inkscape-font-specification:'Product Sans Bold';white-space:pre;fill:#ffffff;stroke-width:0.196517"
       id="path2567" />
    <path
       d="M -47.728825,40.063816 Z"
       style="font-weight:bold;font-size:51.9253px;line-height:1.25;font-family:'Product Sans';-inkscape-font-specification:'Product Sans Bold';white-space:pre;fill:#ffffff;stroke-width:0.196517"
       id="path2569" />
    <path
       d="m -44.7492,32.757597 h 4.632712 v 1.30614 h -3.255144 v 1.775533 h 2.928609 v 1.30614 h -2.928609 v 2.918406 H -44.7492 Z"
       style="font-weight:bold;font-size:51.9253px;line-height:1.25;font-family:'Product Sans';-inkscape-font-specification:'Product Sans Bold';white-space:pre;fill:#ffffff;stroke-width:0.196517"
       id="path2571" />
    <path
       d="m -35.963392,39.410746 h -0.08163 q -0.234697,0.377557 -0.632662,0.602048 -0.397965,0.214288 -0.908175,0.214288 -0.948991,0 -1.418386,-0.58164 -0.45919,-0.581639 -0.45919,-1.551039 V 35.06375 h 1.336753 v 2.867385 q 0,0.540823 0.234697,0.806133 0.244901,0.255105 0.704091,0.255105 0.275513,0 0.479599,-0.112247 0.214288,-0.12245 0.357146,-0.31633 0.153063,-0.204085 0.224493,-0.469393 0.08163,-0.275515 0.08163,-0.581642 V 35.06375 h 1.336751 v 5.000066 h -1.255118 z"
       style="font-weight:bold;font-size:51.9253px;line-height:1.25;font-family:'Product Sans';-inkscape-font-specification:'Product Sans Bold';white-space:pre;fill:#ffffff;stroke-width:0.196517"
       id="path2573" />
    <path
       d="m -32.310287,35.71682 h 0.08163 q 0.234697,-0.377555 0.632662,-0.591845 0.397963,-0.224491 0.908174,-0.224491 0.469394,0 0.826542,0.153063 0.357146,0.153063 0.58164,0.43878 0.234696,0.275515 0.346943,0.673478 0.12245,0.387762 0.12245,0.867358 v 3.030653 h -1.336751 v -2.867385 q 0,-0.540823 -0.244902,-0.795928 -0.234697,-0.26531 -0.693887,-0.26531 -0.275513,0 -0.489801,0.12245 -0.204085,0.112247 -0.357148,0.316332 -0.142858,0.19388 -0.224492,0.469393 -0.07143,0.26531 -0.07143,0.571437 v 2.449011 H -33.56541 V 35.06375 h 1.25512 z"
       style="font-weight:bold;font-size:51.9253px;line-height:1.25;font-family:'Product Sans';-inkscape-font-specification:'Product Sans Bold';white-space:pre;fill:#ffffff;stroke-width:0.196517"
       id="path2575" />
    <path
       d="m -22.963236,38.78829 q -0.326535,0.632661 -0.918378,1.040829 -0.581641,0.397963 -1.459203,0.397963 -0.581639,0 -1.071443,-0.19388 -0.479598,-0.204083 -0.836744,-0.561231 -0.346944,-0.357147 -0.551029,-0.836745 -0.19388,-0.489803 -0.19388,-1.071443 0,-0.58164 0.19388,-1.071443 0.204085,-0.489802 0.551029,-0.836745 0.357146,-0.357148 0.836744,-0.551028 0.489804,-0.204083 1.071443,-0.204083 0.867358,0 1.459203,0.397963 0.591843,0.397965 0.867358,1.030626 l -1.224506,0.51021 q -0.173472,-0.346943 -0.448985,-0.520415 -0.26531,-0.183675 -0.673478,-0.183675 -0.26531,0 -0.500007,0.102042 -0.234696,0.102042 -0.418373,0.285718 -0.173471,0.183677 -0.275513,0.448985 -0.102044,0.26531 -0.102044,0.591845 0,0.326535 0.102044,0.591845 0.102042,0.26531 0.275513,0.448985 0.183677,0.183677 0.418373,0.285718 0.234697,0.102042 0.500007,0.102042 0.418373,0 0.70409,-0.183675 0.295923,-0.19388 0.469395,-0.551028 z"
       style="font-weight:bold;font-size:51.9253px;line-height:1.25;font-family:'Product Sans';-inkscape-font-specification:'Product Sans Bold';white-space:pre;fill:#ffffff;stroke-width:0.196517"
       id="path2577" />
    <path
       d="m -21.646918,36.206624 h -0.877564 V 35.06375 h 0.877564 v -1.530631 h 1.336751 v 1.530631 h 1.224506 v 1.142874 h -1.224506 v 1.938799 q 0,0.173471 0.03061,0.326535 0.04082,0.14286 0.142858,0.244901 0.142859,0.163267 0.408169,0.163267 0.173471,0 0.275515,-0.03061 0.102041,-0.04082 0.19388,-0.102041 l 0.377554,1.173485 q -0.234696,0.112244 -0.510209,0.163266 -0.26531,0.06123 -0.591845,0.06123 -0.377557,0 -0.683684,-0.112247 -0.295921,-0.12245 -0.500006,-0.326535 -0.479596,-0.459188 -0.479596,-1.306137 z"
       style="font-weight:bold;font-size:51.9253px;line-height:1.25;font-family:'Product Sans';-inkscape-font-specification:'Product Sans Bold';white-space:pre;fill:#ffffff;stroke-width:0.196517"
       id="path2579" />
    <path
       d="m -17.310148,34.339252 q -0.173471,0 -0.33674,-0.06123 -0.153061,-0.07143 -0.275513,-0.183674 -0.112247,-0.122452 -0.183675,-0.275514 -0.06123,-0.153063 -0.06123,-0.33674 0,-0.183676 0.06123,-0.336738 0.07143,-0.153063 0.183675,-0.26531 0.122452,-0.122452 0.275513,-0.183676 0.163269,-0.07143 0.33674,-0.07143 0.357149,0 0.612254,0.255105 0.255105,0.2449 0.255105,0.602048 0,0.357149 -0.255105,0.612254 -0.255105,0.244901 -0.612254,0.244901 z m -0.663273,5.724564 V 35.06375 h 1.336752 v 5.000066 z"
       style="font-weight:bold;font-size:51.9253px;line-height:1.25;font-family:'Product Sans';-inkscape-font-specification:'Product Sans Bold';white-space:pre;fill:#ffffff;stroke-width:0.196517"
       id="path2581" />
    <path
       d="m -13.095831,34.900484 q 0.58164,0 1.061238,0.204083 0.489802,0.19388 0.836745,0.551028 0.357148,0.346943 0.551028,0.836745 0.204084,0.489803 0.204084,1.071443 0,0.58164 -0.204084,1.071443 -0.19388,0.489802 -0.551028,0.84695 -0.346943,0.346943 -0.836745,0.551026 -0.479598,0.19388 -1.061238,0.19388 -0.581641,0 -1.071443,-0.19388 -0.479598,-0.204083 -0.836744,-0.551026 -0.346946,-0.357148 -0.551029,-0.84695 -0.19388,-0.489803 -0.19388,-1.071443 0,-0.58164 0.19388,-1.071443 0.204083,-0.489802 0.551029,-0.836745 0.357146,-0.357148 0.836744,-0.551028 0.489802,-0.204083 1.071443,-0.204083 z m 0,4.091889 q 0.255105,0 0.489802,-0.09184 0.244902,-0.102041 0.428576,-0.285716 0.183677,-0.183677 0.285719,-0.448987 0.112246,-0.265308 0.112246,-0.602048 0,-0.336738 -0.112246,-0.602048 -0.102042,-0.26531 -0.285719,-0.448987 -0.183674,-0.183675 -0.428576,-0.275513 -0.234697,-0.102042 -0.489802,-0.102042 -0.26531,0 -0.500006,0.102042 -0.234699,0.09184 -0.418373,0.275513 -0.183677,0.183677 -0.295922,0.448987 -0.102043,0.26531 -0.102043,0.602048 0,0.33674 0.102043,0.602048 0.112245,0.26531 0.295922,0.448987 0.183674,0.183675 0.418373,0.285716 0.234696,0.09184 0.500006,0.09184 z"
       style="font-weight:bold;font-size:51.9253px;line-height:1.25;font-family:'Product Sans';-inkscape-font-specification:'Product Sans Bold';white-space:pre;fill:#ffffff;stroke-width:0.196517"
       id="path2583" />
    <path
       d="m -8.4325248,35.71682 h 0.081633 q 0.2346966,-0.377555 0.6326616,-0.591845 0.397963,-0.224491 0.9081747,-0.224491 0.4693931,0 0.8265415,0.153063 0.3571464,0.153063 0.5816398,0.43878 0.2346965,0.275515 0.3469432,0.673478 0.1224499,0.387762 0.1224499,0.867358 v 3.030653 h -1.3367512 v -2.867385 q 0,-0.540823 -0.2449017,-0.795928 -0.2346966,-0.26531 -0.6938865,-0.26531 -0.2755132,0 -0.4898014,0.12245 -0.2040851,0.112247 -0.3571484,0.316332 -0.1428581,0.19388 -0.2244914,0.469393 -0.07143,0.26531 -0.07143,0.571437 v 2.449011 h -1.336753 V 35.06375 h 1.2551199 z"
       style="font-weight:bold;font-size:51.9253px;line-height:1.25;font-family:'Product Sans';-inkscape-font-specification:'Product Sans Bold';white-space:pre;fill:#ffffff;stroke-width:0.196517"
       id="path2585" />
    <path
       d="m -1.9018459,40.227082 q -0.4898014,0 -0.8775613,-0.12245 -0.3775566,-0.122449 -0.6632749,-0.316329 -0.2755132,-0.204085 -0.4693931,-0.45919 -0.19388,-0.26531 -0.2959215,-0.53062 l 1.193893,-0.51021 q 0.1734716,0.38776 0.459188,0.58164 0.2959234,0.183675 0.6530698,0.183675 0.3673516,0 0.5816418,-0.132654 0.2142882,-0.132654 0.2142882,-0.316331 0,-0.204083 -0.1836768,-0.326535 -0.1734716,-0.132655 -0.6122532,-0.234697 l -0.7040896,-0.153063 q -0.2346966,-0.05102 -0.4898034,-0.163267 -0.2448997,-0.112246 -0.4489848,-0.285718 -0.2040851,-0.173471 -0.3367401,-0.418373 -0.132653,-0.244902 -0.132653,-0.571437 0,-0.367351 0.1530633,-0.65307 0.1632665,-0.285716 0.4387797,-0.479598 0.2755151,-0.204083 0.6428666,-0.306125 0.3775548,-0.112246 0.8061332,-0.112246 0.7142948,0 1.27552627,0.285718 0.56123148,0.275513 0.82654148,0.887767 L -1.0242827,36.543362 Q -1.1671428,36.24744 -1.442656,36.114785 -1.7181691,35.98213 -1.9936823,35.98213 q -0.2857183,0 -0.5000065,0.12245 -0.2142903,0.112247 -0.2142903,0.295923 0,0.173472 0.1734717,0.275514 0.1836767,0.102041 0.4898033,0.183674 l 0.7653166,0.183677 q 0.76531457,0.183677 1.13266611,0.591845 0.37755669,0.397963 0.37755669,0.948991 0,0.326535 -0.15306331,0.622457 -0.15306331,0.295923 -0.43878161,0.53062 -0.27551317,0.224493 -0.67347818,0.357148 -0.3877598,0.132653 -0.8673581,0.132653 z"
       style="font-weight:bold;font-size:51.9253px;line-height:1.25;font-family:'Product Sans';-inkscape-font-specification:'Product Sans Bold';white-space:pre;fill:#ffffff;stroke-width:0.196517"
       id="path2587" />
  </g>
</svg>
