<?xml version="1.0" encoding="UTF-8" standalone="no"?>
<!-- Created with Inkscape (http://www.inkscape.org/) -->

<svg
   width="84.272316mm"
   height="25.22131mm"
   viewBox="0 0 84.272316 25.221309"
   version="1.1"
   id="svg3542"
   inkscape:version="1.2.1 (9c6d41e410, 2022-07-14)"
   sodipodi:docname="oak-stage-0-colour.svg"
   inkscape:export-filename="/home/mschett/Documents/oak-logo/oak-restricted-kernel.png"
   inkscape:export-xdpi="96"
   inkscape:export-ydpi="96"
   xmlns:inkscape="http://www.inkscape.org/namespaces/inkscape"
   xmlns:sodipodi="http://sodipodi.sourceforge.net/DTD/sodipodi-0.dtd"
   xmlns="http://www.w3.org/2000/svg"
   xmlns:svg="http://www.w3.org/2000/svg">
  <sodipodi:namedview
     id="namedview3544"
     pagecolor="#ffffff"
     bordercolor="#666666"
     borderopacity="1.0"
     inkscape:pageshadow="2"
     inkscape:pageopacity="0.0"
     inkscape:pagecheckerboard="0"
     inkscape:document-units="mm"
     showgrid="false"
     fit-margin-top="0"
     fit-margin-left="0"
     fit-margin-right="0"
     fit-margin-bottom="0"
     inkscape:zoom="0.72782688"
     inkscape:cx="161.43949"
     inkscape:cy="185.48367"
     inkscape:window-width="2560"
     inkscape:window-height="1355"
     inkscape:window-x="1080"
     inkscape:window-y="0"
     inkscape:window-maximized="1"
     inkscape:current-layer="text24122-8-2-1-6-2-8-6-5"
     inkscape:showpageshadow="2"
     inkscape:deskcolor="#d1d1d1" />
  <defs
     id="defs3539">
    <rect
       x="117.74503"
       y="441.03894"
       width="544.48914"
       height="88.909904"
       id="rect24124-0-3-9-3-8-9-2" />
    <rect
       x="117.74503"
       y="441.03894"
       width="544.48914"
       height="88.909904"
       id="rect24124-0-3-9-3-8-9-2-2" />
    <rect
       x="117.74503"
       y="441.03894"
       width="544.48914"
       height="88.909904"
       id="rect24124-0-3-9-3-8-9-2-2-0" />
  </defs>
  <g
     inkscape:label="Layer 1"
     inkscape:groupmode="layer"
     id="layer1"
     transform="translate(-38.147149,-99.842794)">
    <g
       aria-label="stage 0"
       transform="matrix(0.19651719,0,0,0.19651719,30.02917,26.67356)"
       id="text24122-8-2-1-6-2-8-6-5"
       style="font-size:51.9253px;line-height:1.25;white-space:pre;shape-inside:url(#rect24124-0-3-9-3-8-9-2-2-0);display:inline">
      <g
         id="g1093-4-9-8-5-0-6-5"
         transform="matrix(3.6621547,0,0,3.6621547,-106.22454,313.90282)">
        <ellipse
           id="path9713-6-2-2-3-3-4-6-0-6-2-8-9"
           cx="48.352718"
           cy="23.616285"
           rx="3.4338517"
           ry="4.666791"
           style="fill:#ffbf00;fill-opacity:1;stroke:#737373;stroke-width:0.18087;stroke-miterlimit:4;stroke-dasharray:none;stroke-opacity:1" />
        <g
           id="g1086-4-2-2-6-7-9-2"
           transform="translate(0.00621353)">
          <path
             style="fill:#34a852;fill-opacity:1;stroke:#6d6d6d;stroke-width:0.18087;stroke-linecap:butt;stroke-linejoin:round;stroke-miterlimit:4;stroke-dasharray:none;stroke-opacity:1"
             d="m 40.370287,24.132384 7.070141,-0.107451 0.0395,10.637571 c 0,0 -6.003695,0.21491 -7.109642,-10.53012 z"
             id="path9925-6-6-9-6-5-4-1-1-4-6-0-2"
             sodipodi:nodetypes="cccc" />
          <path
             style="fill:#34a852;fill-opacity:1;stroke:#737373;stroke-width:0.18087;stroke-linecap:butt;stroke-linejoin:round;stroke-miterlimit:4;stroke-dasharray:none;stroke-opacity:1"
             d="m 56.322723,24.132381 -7.070141,-0.107451 -0.0395,10.637574 c 0,0 6.003695,0.2149 7.109641,-10.530123 z"
             id="path9925-6-6-9-6-5-6-7-7-0-0-1-6-8"
             sodipodi:nodetypes="cccc" />
        </g>
        <path
           id="path10128-9-6-0-6-5-6-8-5-0-3-8-9"
           style="fill:#137333;fill-opacity:1;stroke:#737373;stroke-width:0.18087;stroke-miterlimit:4;stroke-dasharray:none;stroke-opacity:1"
           d="m 48.350392,16.044738 a 7.9903085,6.9200343 0 0 0 -7.935184,6.151089 h 15.875021 a 7.9903085,6.9200343 0 0 0 -7.939837,-6.151089 z" />
      </g>
      <path
         d="M 117.49961,431.23821 V 383.733 h 16.7197 q 3.38375,0 6.30307,1.12794 2.98566,1.06154 5.17515,3.052 2.18948,1.99041 3.4501,4.77704 1.26061,2.72027 1.26061,6.03769 0,3.38373 -1.26061,6.17035 -1.26062,2.72027 -3.4501,4.71073 -2.18949,1.99042 -5.17515,3.11836 -2.91932,1.06158 -6.30307,1.06158 h -7.76271 v 17.44952 z m 16.85241,-25.94211 q 3.51644,0 5.30784,-1.99041 1.79139,-1.99046 1.79139,-4.57802 0,-1.2606 -0.46444,-2.4549 -0.39808,-1.19425 -1.32696,-2.05677 -0.86253,-0.92887 -2.18949,-1.45966 -1.32695,-0.5308 -3.11835,-0.5308 h -7.89542 v 13.07056 z"
         style="font-weight:bold;font-size:66.6667px;line-height:1.25;font-family:'Product Sans';-inkscape-font-specification:'Product Sans Bold';white-space:pre;fill:#ffffff;stroke-width:0.995221"
         id="path15728-1-7-1-6-1-9-3" />
      <path
         d="m 155.71602,398.72767 h 8.16082 v 4.51167 h 0.53078 q 0.59713,-1.19425 1.59235,-2.18948 0.99522,-0.99523 2.18948,-1.72504 1.26062,-0.72986 2.65393,-1.12794 1.45966,-0.39793 2.85296,-0.39793 1.72505,0 2.91931,0.33178 1.26062,0.33177 2.12315,0.86252 l -2.32219,7.89544 q -0.79617,-0.39793 -1.79139,-0.59715 -0.92888,-0.26512 -2.32218,-0.26512 -1.7914,0 -3.25106,0.72981 -1.45966,0.6635 -2.52123,1.92411 -0.99522,1.2606 -1.59235,2.98564 -0.53078,1.65873 -0.53078,3.64915 v 15.92354 h -8.6916 z"
         style="font-weight:bold;font-size:66.6667px;line-height:1.25;font-family:'Product Sans';-inkscape-font-specification:'Product Sans Bold';white-space:pre;fill:#ffffff;stroke-width:0.995221"
         id="path15730-7-4-0-2-5-0-6" />
      <path
         d="m 196.12191,397.66608 q 3.78184,0 6.9002,1.32696 3.1847,1.26066 5.44054,3.58279 2.32218,2.25584 3.58279,5.44054 1.32696,3.18471 1.32696,6.96657 0,3.78186 -1.32696,6.96657 -1.26061,3.18466 -3.58279,5.50684 -2.25584,2.25584 -5.44054,3.58279 -3.11836,1.26066 -6.9002,1.26066 -3.78184,0 -6.96654,-1.26066 -3.11836,-1.32695 -5.44054,-3.58279 -2.25584,-2.32218 -3.5828,-5.50684 -1.26061,-3.18471 -1.26061,-6.96657 0,-3.78186 1.26061,-6.96657 1.32696,-3.1847 3.5828,-5.44054 2.32218,-2.32213 5.44054,-3.58279 3.1847,-1.32696 6.96654,-1.32696 z m 0,26.60557 q 1.6587,0 3.1847,-0.5971 1.59236,-0.66351 2.78662,-1.85775 1.19427,-1.1943 1.85775,-2.91934 0.72982,-1.72504 0.72982,-3.91452 0,-2.18948 -0.72982,-3.91452 -0.66348,-1.72509 -1.85775,-2.91933 -1.19426,-1.19425 -2.78662,-1.7914 -1.526,-0.66345 -3.1847,-0.66345 -1.72505,0 -3.25105,0.66345 -1.52601,0.59715 -2.72027,1.7914 -1.19427,1.19424 -1.9241,2.91933 -0.66348,1.72504 -0.66348,3.91452 0,2.18948 0.66348,3.91452 0.72983,1.72504 1.9241,2.91934 1.19426,1.19424 2.72027,1.85775 1.526,0.5971 3.25105,0.5971 z"
         style="font-weight:bold;font-size:66.6667px;line-height:1.25;font-family:'Product Sans';-inkscape-font-specification:'Product Sans Bold';white-space:pre;fill:#ffffff;stroke-width:0.995221"
         id="path15732-5-18-8-6-9-3-1" />
      <path
         d="m 213.903,437.60763 q 0.53078,0.33178 0.99522,0.46459 0.53078,0.13281 1.26062,0.13281 2.98566,0 2.98566,-3.91457 v -35.56253 h 8.69158 v 35.82796 q 0,3.1847 -0.86251,5.37418 -0.86253,2.25583 -2.32219,3.64915 -1.45965,1.39326 -3.38375,1.99041 -1.92409,0.6635 -4.11358,0.6635 -1.6587,0 -2.98566,-0.26562 -1.32696,-0.19897 -2.45487,-0.66346 z m 9.55412,-43.59069 q -1.12792,0 -2.18949,-0.39793 -0.99522,-0.46459 -1.7914,-1.19425 -0.72982,-0.79616 -1.19426,-1.79139 -0.39808,-0.99523 -0.39808,-2.18948 0,-1.1943 0.39808,-2.18953 0.46444,-0.99518 1.19426,-1.72504 0.79618,-0.79616 1.7914,-1.19425 1.06157,-0.46459 2.18949,-0.46459 2.32218,0 3.98087,1.65869 1.65871,1.59238 1.65871,3.91457 0,2.32218 -1.65871,3.98087 -1.65869,1.59233 -3.98087,1.59233 z"
         style="font-weight:bold;font-size:66.6667px;line-height:1.25;font-family:'Product Sans';-inkscape-font-specification:'Product Sans Bold';white-space:pre;fill:#ffffff;stroke-width:0.995221"
         id="path15734-9-5-5-7-9-3-2" />
      <path
         d="m 266.25146,423.40913 q -2.25583,3.98092 -6.10402,6.43577 -3.78184,2.4549 -9.28873,2.4549 -3.71548,0 -6.90019,-1.26066 -3.11836,-1.32695 -5.44054,-3.64909 -2.32219,-2.32219 -3.64914,-5.44054 -1.26062,-3.18471 -1.26062,-6.96657 0,-3.51643 1.26062,-6.63479 1.26061,-3.18471 3.51644,-5.50689 2.25583,-2.38855 5.30785,-3.78186 3.11836,-1.39332 6.83384,-1.39332 3.91455,0 6.96655,1.32696 3.05201,1.26066 5.1088,3.58279 2.05679,2.25584 3.11836,5.37419 1.06156,3.1184 1.06156,6.76755 0,0.46459 0,0.79616 -0.0663,0.39793 -0.0663,0.72981 -0.0664,0.33178 -0.0664,0.72986 h -24.48243 q 0.26537,1.99041 1.06157,3.45008 0.86252,1.39332 2.05679,2.38855 1.26061,0.92887 2.72027,1.39331 1.45966,0.39793 2.98566,0.39793 2.98567,0 4.90975,-1.32696 1.99045,-1.39331 3.11837,-3.45013 z M 258.35604,410.803 q -0.0664,-0.86252 -0.59713,-1.92411 -0.46444,-1.06153 -1.45966,-1.99041 -0.92887,-0.92887 -2.38853,-1.52602 -1.39331,-0.5971 -3.38375,-0.5971 -2.78661,0 -4.90975,1.59233 -2.12314,1.59233 -2.98566,4.44531 z"
         style="font-weight:bold;font-size:66.6667px;line-height:1.25;font-family:'Product Sans';-inkscape-font-specification:'Product Sans Bold';white-space:pre;fill:#ffffff;stroke-width:0.995221"
         id="path15736-6-97-0-5-1-3-9" />
      <path
         d="m 303.53899,422.94469 q -2.12314,4.11358 -5.97132,6.7675 -3.78184,2.58761 -9.48777,2.58761 -3.78184,0 -6.96654,-1.26066 -3.11837,-1.32695 -5.44055,-3.64909 -2.25583,-2.32219 -3.58279,-5.44054 -1.26061,-3.18471 -1.26061,-6.96657 0,-3.78186 1.26061,-6.96657 1.32696,-3.1847 3.58279,-5.44054 2.32218,-2.32213 5.44055,-3.58279 3.1847,-1.32696 6.96654,-1.32696 5.63958,0 9.48777,2.58762 3.84818,2.58756 5.63958,6.70114 l -7.96176,3.31737 q -1.12792,-2.25584 -2.91932,-3.38373 -1.72504,-1.19424 -4.37897,-1.19424 -1.72504,0 -3.25105,0.66345 -1.526,0.6635 -2.72027,1.85775 -1.12792,1.19425 -1.79139,2.91934 -0.66349,1.72504 -0.66349,3.84816 0,2.12312 0.66349,3.84816 0.66347,1.72509 1.79139,2.91934 1.19427,1.19425 2.72027,1.85775 1.52601,0.66346 3.25105,0.66346 2.72027,0 4.57802,-1.19425 1.92409,-1.2606 3.05201,-3.58279 z"
         style="font-weight:bold;font-size:66.6667px;line-height:1.25;font-family:'Product Sans';-inkscape-font-specification:'Product Sans Bold';white-space:pre;fill:#ffffff;stroke-width:0.995221"
         id="path15738-2-5-6-6-4-7-3" />
      <path
         d="m 312.0977,406.15862 h -5.70592 v -7.43095 h 5.70592 v -9.95221 h 8.6916 v 9.95221 h 7.96176 v 7.43095 h -7.96176 v 12.60618 q 0,1.12789 0.19907,2.12312 0.26537,0.92888 0.92887,1.59233 0.92888,1.06159 2.65392,1.06159 1.12792,0 1.7914,-0.19897 0.66348,-0.26512 1.26062,-0.66345 l 2.45487,7.63002 q -1.52601,0.72981 -3.31741,1.06158 -1.72504,0.39793 -3.84818,0.39793 -2.45487,0 -4.44531,-0.72986 -1.9241,-0.79616 -3.25106,-2.12312 -3.11836,-2.98564 -3.11836,-8.49254 z"
         style="font-weight:bold;font-size:66.6667px;line-height:1.25;font-family:'Product Sans';-inkscape-font-specification:'Product Sans Bold';white-space:pre;fill:#ffffff;stroke-width:0.995221"
         id="path15740-1-3-4-9-9-3-1" />
      <path
         d="M 331.40492,431.23821 Z"
         style="font-weight:bold;font-size:66.6667px;line-height:1.25;font-family:'Product Sans';-inkscape-font-specification:'Product Sans Bold';white-space:pre;fill:#ffffff;stroke-width:0.995221"
         id="path15742-7-8-6-8-1-2-9" />
      <path
         d="m 371.9435,432.2998 q -5.30783,0 -9.88585,-1.92411 -4.51167,-1.92411 -7.82908,-5.24152 -3.3174,-3.38373 -5.2415,-7.8954 -1.85774,-4.57802 -1.85774,-9.75314 0,-5.17517 1.85774,-9.68683 1.9241,-4.57803 5.2415,-7.89545 3.31741,-3.38372 7.82908,-5.30783 4.57802,-1.9241 9.88585,-1.9241 5.30783,0 9.8195,1.9241 4.57802,1.92411 7.89544,5.30783 3.31737,3.31742 5.17512,7.89545 1.92411,4.51166 1.92411,9.68683 0,5.17512 -1.92411,9.75314 -1.85775,4.51167 -5.17512,7.8954 -3.31742,3.31741 -7.89544,5.24152 -4.51167,1.92411 -9.8195,1.92411 z m 0,-8.49259 q 3.31742,0 6.17035,-1.19425 2.91934,-1.19425 5.04246,-3.31742 2.18948,-2.12312 3.38378,-5.10876 1.2606,-3.052 1.2606,-6.70115 0,-3.64914 -1.2606,-6.63484 -1.1943,-3.05199 -3.38378,-5.17512 -2.12312,-2.12317 -5.04246,-3.31742 -2.85293,-1.19424 -6.17035,-1.19424 -3.31742,0 -6.2367,1.19424 -2.85299,1.19425 -5.04246,3.31742 -2.12313,2.12313 -3.38378,5.17512 -1.19425,2.9857 -1.19425,6.63484 0,3.64915 1.19425,6.70115 1.26065,2.98564 3.38378,5.10876 2.18947,2.12317 5.04246,3.31742 2.91928,1.19425 6.2367,1.19425 z"
         style="font-weight:bold;font-size:66.6667px;line-height:1.25;font-family:'Product Sans';-inkscape-font-specification:'Product Sans Bold';white-space:pre;fill:#ffffff;stroke-width:0.995221"
         id="path15744-8-8-2-7-0-6-47" />
      <path
         d="m 422.96504,427.78813 h -0.53079 q -1.52597,1.85775 -3.71545,3.18471 -2.12317,1.32696 -5.5069,1.32696 -2.52125,0 -4.77709,-0.86252 -2.18947,-0.79622 -3.84816,-2.25584 -1.65873,-1.45966 -2.58761,-3.51648 -0.92887,-2.05677 -0.92887,-4.51167 0,-2.5212 0.99523,-4.51166 0.99523,-2.05677 2.78662,-3.51644 1.7914,-1.45967 4.17994,-2.18948 2.4549,-0.79616 5.30783,-0.79616 3.18471,0 5.24148,0.53079 2.05682,0.46459 3.38377,0.99518 v -0.99518 q 0,-2.58761 -2.05676,-4.24629 -2.05682,-1.72504 -5.10882,-1.72504 -4.51166,0 -7.63002,3.7818 l -6.30306,-4.3126 q 5.17512,-6.50213 14.1321,-6.50213 7.56371,0 11.54459,3.5828 3.98087,3.51648 3.98087,10.483 v 19.50633 h -8.5589 z m 0,-9.75319 q -1.52602,-0.72981 -3.1847,-1.12789 -1.59233,-0.46459 -3.51644,-0.46459 -3.11835,0 -4.84339,1.39331 -1.65874,1.32696 -1.65874,3.31737 0,1.99046 1.59238,3.18471 1.65869,1.1943 3.78181,1.1943 1.72509,0 3.18471,-0.59715 1.45967,-0.66351 2.4549,-1.65869 1.06158,-1.06158 1.59233,-2.38854 0.59714,-1.39332 0.59714,-2.85298 z"
         style="font-weight:bold;font-size:66.6667px;line-height:1.25;font-family:'Product Sans';-inkscape-font-specification:'Product Sans Bold';white-space:pre;fill:#ffffff;stroke-width:0.995221"
         id="path15746-5-31-5-2-7-5-8" />
      <path
         d="m 438.42415,383.733 h 8.69161 v 25.87575 h 0.39793 l 10.88108,-10.88108 h 10.74837 v 0.53079 l -12.07533,11.74361 13.07056,19.70535 v 0.53079 h -10.28398 l -8.89062,-14.26481 -3.84817,3.78181 v 10.483 h -8.6916 z"
         style="font-weight:bold;font-size:66.6667px;line-height:1.25;font-family:'Product Sans';-inkscape-font-specification:'Product Sans Bold';white-space:pre;fill:#ffffff;stroke-width:0.995221"
         id="path15748-7-89-8-8-5-2-4" />
      <path
         d="m 130.72547,489.45557 q -2.49242,0 -4.46558,-0.6231 -1.92124,-0.6231 -3.37514,-1.60968 -1.40199,-1.03851 -2.38857,-2.33664 -0.98658,-1.35006 -1.50583,-2.70012 l 6.07526,-2.59626 q 0.88273,1.97316 2.33664,2.95974 1.50583,0.93465 3.32322,0.93465 1.86931,0 2.95974,-0.67502 1.09043,-0.67503 1.09043,-1.60969 0,-1.0385 -0.93466,-1.66161 -0.88273,-0.67503 -3.11551,-1.19428 l -3.58285,-0.77888 q -1.19428,-0.25963 -2.49241,-0.8308 -1.24621,-0.57118 -2.28472,-1.45391 -1.0385,-0.88273 -1.71353,-2.12894 -0.67503,-1.24621 -0.67503,-2.90782 0,-1.86931 0.77888,-3.32322 0.8308,-1.4539 2.23279,-2.44049 1.40198,-1.0385 3.27129,-1.55775 1.92124,-0.57118 4.1021,-0.57118 3.63477,0 6.49066,1.45391 2.85589,1.40198 4.20595,4.5175 l -5.86756,2.38856 q -0.72695,-1.50583 -2.12894,-2.18086 -1.40198,-0.67503 -2.80396,-0.67503 -1.45391,0 -2.54434,0.6231 -1.09043,0.57118 -1.09043,1.50584 0,0.88273 0.88273,1.40198 0.93465,0.51925 2.49241,0.93465 l 3.8944,0.93466 q 3.8944,0.93466 5.76371,3.01167 1.92123,2.02508 1.92123,4.82905 0,1.66161 -0.77888,3.16744 -0.77888,1.50584 -2.23278,2.70012 -1.40199,1.14236 -3.42707,1.81739 -1.97317,0.67502 -4.41365,0.67502 z"
         style="font-weight:bold;font-family:'Product Sans';-inkscape-font-specification:'Product Sans Bold';fill:#ffffff"
         id="path1906" />
      <path
         d="m 148.27625,468.99701 h -4.46557 v -5.81564 h 4.46557 v -7.78879 h 6.80222 v 7.78879 h 6.23103 v 5.81564 h -6.23103 v 9.8658 q 0,0.88273 0.15577,1.66161 0.2077,0.72696 0.72696,1.24621 0.72695,0.8308 2.07701,0.8308 0.88273,0 1.40198,-0.15577 0.51925,-0.2077 0.98658,-0.51925 l 1.92124,5.97141 q -1.19428,0.57117 -2.59627,0.8308 -1.35005,0.31155 -3.01166,0.31155 -1.92124,0 -3.479,-0.57118 -1.50583,-0.6231 -2.54434,-1.66161 -2.44049,-2.33663 -2.44049,-6.64643 z"
         style="font-weight:bold;font-family:'Product Sans';-inkscape-font-specification:'Product Sans Bold';fill:#ffffff"
         id="path1908" />
      <path
         d="m 181.45646,485.92465 h -0.4154 q -1.19428,1.45391 -2.90782,2.49242 -1.66161,1.0385 -4.3098,1.0385 -1.97316,0 -3.73862,-0.67502 -1.71354,-0.62311 -3.01167,-1.76547 -1.29813,-1.14235 -2.02508,-2.75204 -0.72696,-1.60968 -0.72696,-3.53092 0,-1.97316 0.77888,-3.53092 0.77888,-1.60968 2.18086,-2.75204 1.40199,-1.14235 3.2713,-1.71353 1.92123,-0.62311 4.15402,-0.62311 2.49242,0 4.1021,0.41541 1.60968,0.36347 2.64819,0.77888 v -0.77888 q 0,-2.02509 -1.60968,-3.32322 -1.60969,-1.35006 -3.99825,-1.35006 -3.53092,0 -5.97141,2.95974 l -4.93291,-3.37514 q 4.05018,-5.08868 11.06009,-5.08868 5.91949,0 9.03501,2.80396 3.11551,2.75204 3.11551,8.2042 v 15.26604 h -6.69836 z m 0,-7.63302 q -1.19428,-0.57117 -2.49241,-0.88273 -1.24621,-0.36347 -2.75204,-0.36347 -2.44049,0 -3.79055,1.09043 -1.29813,1.0385 -1.29813,2.59626 0,1.55776 1.2462,2.49242 1.29814,0.93465 2.95974,0.93465 1.35006,0 2.49242,-0.46732 1.14236,-0.51926 1.92124,-1.29814 0.8308,-0.8308 1.2462,-1.86931 0.46733,-1.09043 0.46733,-2.23279 z"
         style="font-weight:bold;font-family:'Product Sans';-inkscape-font-specification:'Product Sans Bold';fill:#ffffff"
         id="path1910" />
      <path
         d="m 205.03058,500.67144 q -2.70011,0 -4.82905,-0.72696 -2.07701,-0.67502 -3.63477,-1.81738 -1.55776,-1.09043 -2.59626,-2.44049 -1.03851,-1.35006 -1.50584,-2.70012 l 6.49066,-2.59626 q 0.72696,2.02509 2.38857,3.11552 1.66161,1.14235 3.68669,1.14235 3.21937,0 5.08868,-2.02508 1.86931,-1.97316 1.86931,-5.55601 v -1.76546 h -0.4154 q -1.19428,1.66161 -3.16744,2.64819 -1.92124,0.93466 -4.56943,0.93466 -2.28471,0 -4.46557,-0.93466 -2.12894,-0.93466 -3.79055,-2.64819 -1.66161,-1.76546 -2.70012,-4.20595 -1.0385,-2.44049 -1.0385,-5.45216 0,-3.01166 1.0385,-5.45215 1.03851,-2.49242 2.70012,-4.20595 1.66161,-1.76546 3.79055,-2.70012 2.18086,-0.93465 4.46557,-0.93465 2.64819,0 4.56943,0.98658 1.97316,0.93465 3.16744,2.59626 h 0.4154 v -2.75204 h 6.49067 v 23.62601 q 0,3.21937 -0.98658,5.76371 -0.98658,2.59627 -2.75204,4.36173 -1.76546,1.81738 -4.25788,2.75204 -2.44049,0.98658 -5.45216,0.98658 z m 0.25963,-17.91423 q 1.24621,0 2.44049,-0.46733 1.24621,-0.46733 2.18086,-1.35006 0.93466,-0.93465 1.50584,-2.23278 0.57117,-1.35006 0.57117,-3.0636 0,-1.71353 -0.57117,-3.06359 -0.57118,-1.35006 -1.50584,-2.23279 -0.93465,-0.93465 -2.18086,-1.40198 -1.19428,-0.46733 -2.44049,-0.46733 -1.24621,0 -2.44049,0.46733 -1.19428,0.46733 -2.12894,1.40198 -0.93465,0.93466 -1.50583,2.28472 -0.57118,1.29813 -0.57118,3.01166 0,1.71354 0.57118,3.0636 0.57118,1.29813 1.50583,2.23278 0.93466,0.88273 2.12894,1.35006 1.19428,0.46733 2.44049,0.46733 z"
         style="font-weight:bold;font-family:'Product Sans';-inkscape-font-specification:'Product Sans Bold';fill:#ffffff"
         id="path1912" />
      <path
         d="m 248.12863,482.49758 q -1.76546,3.11552 -4.77713,5.03676 -2.95974,1.92123 -7.26954,1.92123 -2.90782,0 -5.40023,-0.98658 -2.44049,-1.0385 -4.25788,-2.85589 -1.81738,-1.81738 -2.85589,-4.25787 -0.98658,-2.49242 -0.98658,-5.45216 0,-2.75204 0.98658,-5.19253 0.98658,-2.49241 2.75204,-4.3098 1.76546,-1.86931 4.15403,-2.95974 2.44049,-1.09043 5.3483,-1.09043 3.06359,0 5.45216,1.0385 2.38856,0.98658 3.99825,2.80397 1.60968,1.76546 2.44049,4.20595 0.8308,2.44049 0.8308,5.29638 0,0.36348 0,0.6231 -0.0519,0.31155 -0.0519,0.57118 -0.0519,0.25963 -0.0519,0.57118 h -19.16044 q 0.20771,1.55776 0.83081,2.70012 0.67503,1.09043 1.60968,1.86931 0.98658,0.72695 2.12894,1.09043 1.14236,0.31155 2.33664,0.31155 2.33664,0 3.84247,-1.03851 1.55776,-1.09043 2.44049,-2.70011 z m -6.17911,-9.8658 q -0.0519,-0.67503 -0.46733,-1.50584 -0.36348,-0.8308 -1.14236,-1.55776 -0.72695,-0.72695 -1.86931,-1.19428 -1.09043,-0.46733 -2.64819,-0.46733 -2.18086,0 -3.84247,1.24621 -1.66161,1.24621 -2.33664,3.479 z"
         style="font-weight:bold;font-family:'Product Sans';-inkscape-font-specification:'Product Sans Bold';fill:#ffffff"
         id="path1914" />
      <path
         d="M 249.99792,488.62477 Z"
         style="font-weight:bold;font-family:'Product Sans';-inkscape-font-specification:'Product Sans Bold';fill:#ffffff"
         id="path1916" />
      <path
         d="m 278.60874,489.45557 q -3.42707,0 -6.17911,-1.40198 -2.75204,-1.45391 -4.72521,-3.94632 -1.92123,-2.49242 -2.95974,-5.86756 -1.0385,-3.42707 -1.0385,-7.37339 0,-3.94633 1.0385,-7.32147 1.03851,-3.42707 2.95974,-5.91949 1.97317,-2.49241 4.72521,-3.89439 2.75204,-1.45391 6.17911,-1.45391 3.42707,0 6.17911,1.45391 2.75204,1.40198 4.67328,3.89439 1.97316,2.49242 3.01166,5.91949 1.03851,3.37514 1.03851,7.32147 0,3.94632 -1.03851,7.37339 -1.0385,3.37514 -3.01166,5.86756 -1.92124,2.49241 -4.67328,3.94632 -2.75204,1.40198 -6.17911,1.40198 z m 0,-6.43873 q 1.86931,0 3.37514,-0.88273 1.50584,-0.93466 2.54434,-2.54434 1.09043,-1.66161 1.60969,-3.8944 0.57117,-2.23279 0.57117,-4.82905 0,-2.64819 -0.57117,-4.82906 -0.51926,-2.23278 -1.60969,-3.84247 -1.0385,-1.66161 -2.54434,-2.54434 -1.50583,-0.93465 -3.37514,-0.93465 -1.92124,0 -3.42707,0.93465 -1.50584,0.88273 -2.54434,2.54434 -1.03851,1.60969 -1.60969,3.84247 -0.51925,2.18087 -0.51925,4.82906 0,2.59626 0.51925,4.82905 0.57118,2.23279 1.60969,3.8944 1.0385,1.60968 2.54434,2.54434 1.50583,0.88273 3.42707,0.88273 z"
         style="font-weight:bold;font-family:'Product Sans';-inkscape-font-specification:'Product Sans Bold';fill:#ffffff"
         id="path1918" />
    </g>
  </g>
</svg>
