<?xml version="1.0" encoding="UTF-8" standalone="no"?>
<!-- Created with Inkscape (http://www.inkscape.org/) -->

<svg
   width="84.272316mm"
   height="25.22131mm"
   viewBox="0 0 84.272316 25.221309"
   version="1.1"
   id="svg3542"
   inkscape:version="1.2.1 (9c6d41e410, 2022-07-14)"
   sodipodi:docname="oak-stage-0.svg"
   inkscape:export-filename="/home/mschett/Documents/oak-logo/oak-restricted-kernel.png"
   inkscape:export-xdpi="96"
   inkscape:export-ydpi="96"
   xmlns:inkscape="http://www.inkscape.org/namespaces/inkscape"
   xmlns:sodipodi="http://sodipodi.sourceforge.net/DTD/sodipodi-0.dtd"
   xmlns="http://www.w3.org/2000/svg"
   xmlns:svg="http://www.w3.org/2000/svg">
  <sodipodi:namedview
     id="namedview3544"
     pagecolor="#ffffff"
     bordercolor="#666666"
     borderopacity="1.0"
     inkscape:pageshadow="2"
     inkscape:pageopacity="0.0"
     inkscape:pagecheckerboard="0"
     inkscape:document-units="mm"
     showgrid="false"
     fit-margin-top="0"
     fit-margin-left="0"
     fit-margin-right="0"
     fit-margin-bottom="0"
     inkscape:zoom="0.72782688"
     inkscape:cx="161.43949"
     inkscape:cy="185.48367"
     inkscape:window-width="2560"
     inkscape:window-height="1355"
     inkscape:window-x="1080"
     inkscape:window-y="0"
     inkscape:window-maximized="1"
     inkscape:current-layer="text24122-8-2-1-6-2-8-6-5"
     inkscape:showpageshadow="2"
     inkscape:deskcolor="#d1d1d1" />
  <defs
     id="defs3539">
    <rect
       x="117.74503"
       y="441.03894"
       width="544.48914"
       height="88.909904"
       id="rect24124-0-3-9-3-8-9-2" />
    <rect
       x="117.74503"
       y="441.03894"
       width="544.48914"
       height="88.909904"
       id="rect24124-0-3-9-3-8-9-2-2" />
    <rect
       x="117.74503"
       y="441.03894"
       width="544.48914"
       height="88.909904"
       id="rect24124-0-3-9-3-8-9-2-2-0" />
  </defs>
  <g
     inkscape:label="Layer 1"
     inkscape:groupmode="layer"
     id="layer1"
     transform="translate(-38.147149,-99.842794)">
    <g
       aria-label="stage 0"
       transform="matrix(0.19651719,0,0,0.19651719,30.02917,26.67356)"
       id="text24122-8-2-1-6-2-8-6-5"
       style="font-size:51.9253px;line-height:1.25;white-space:pre;shape-inside:url(#rect24124-0-3-9-3-8-9-2-2-0);display:inline">
      <g
         id="g1962">
        <g
           id="g1093-4-9-8-5-0-6-5"
           transform="matrix(3.6621547,0,0,3.6621547,-106.22454,313.90282)">
          <ellipse
             id="path9713-6-2-2-3-3-4-6-0-6-2-8-9"
             cx="48.352718"
             cy="23.616285"
             rx="3.4338517"
             ry="4.666791"
             style="fill:#ffbf00;fill-opacity:1;stroke:#737373;stroke-width:0.18087;stroke-miterlimit:4;stroke-dasharray:none;stroke-opacity:1" />
          <g
             id="g1086-4-2-2-6-7-9-2"
             transform="translate(0.00621353)">
            <path
               style="fill:#34a852;fill-opacity:1;stroke:#6d6d6d;stroke-width:0.18087;stroke-linecap:butt;stroke-linejoin:round;stroke-miterlimit:4;stroke-dasharray:none;stroke-opacity:1"
               d="m 40.370287,24.132384 7.070141,-0.107451 0.0395,10.637571 c 0,0 -6.003695,0.21491 -7.109642,-10.53012 z"
               id="path9925-6-6-9-6-5-4-1-1-4-6-0-2"
               sodipodi:nodetypes="cccc" />
            <path
               style="fill:#34a852;fill-opacity:1;stroke:#737373;stroke-width:0.18087;stroke-linecap:butt;stroke-linejoin:round;stroke-miterlimit:4;stroke-dasharray:none;stroke-opacity:1"
               d="m 56.322723,24.132381 -7.070141,-0.107451 -0.0395,10.637574 c 0,0 6.003695,0.2149 7.109641,-10.530123 z"
               id="path9925-6-6-9-6-5-6-7-7-0-0-1-6-8"
               sodipodi:nodetypes="cccc" />
          </g>
          <path
             id="path10128-9-6-0-6-5-6-8-5-0-3-8-9"
             style="fill:#137333;fill-opacity:1;stroke:#737373;stroke-width:0.18087;stroke-miterlimit:4;stroke-dasharray:none;stroke-opacity:1"
             d="m 48.350392,16.044738 a 7.9903085,6.9200343 0 0 0 -7.935184,6.151089 h 15.875021 a 7.9903085,6.9200343 0 0 0 -7.939837,-6.151089 z" />
        </g>
        <path
           d="m 53.119861,111.41928 v -9.33559 h 3.28571 q 0.664965,0 1.238661,0.22166 0.586734,0.20861 1.017005,0.59977 0.430271,0.39115 0.678004,0.93877 0.247733,0.53458 0.247733,1.18651 0,0.66496 -0.247733,1.21258 -0.247733,0.53458 -0.678004,0.92574 -0.430271,0.39115 -1.017005,0.61281 -0.573696,0.20862 -1.238661,0.20862 h -1.525507 v 3.42913 z m 3.311788,-5.09807 q 0.691042,0 1.043082,-0.39115 0.35204,-0.39116 0.35204,-0.89966 0,-0.24773 -0.09127,-0.48243 -0.07823,-0.23469 -0.260772,-0.40419 -0.169502,-0.18254 -0.430272,-0.28685 -0.260769,-0.10431 -0.61281,-0.10431 h -1.551585 v 2.56859 z"
           style="font-weight:bold;font-size:66.6667px;line-height:1.25;font-family:'Product Sans';-inkscape-font-specification:'Product Sans Bold';white-space:pre;fill:#666666;stroke-width:0.195578"
           id="path15728-1-7-1-6-1-9-3"
           transform="matrix(5.0886134,0,0,5.0886134,-152.80683,-135.73143)" />
        <path
           d="m 60.630043,105.0304 h 1.603741 v 0.88662 h 0.104307 q 0.117347,-0.23469 0.312925,-0.43027 0.195578,-0.19558 0.430271,-0.339 0.247733,-0.14343 0.521542,-0.22166 0.286848,-0.0782 0.560657,-0.0782 0.339001,0 0.573694,0.0652 0.247733,0.0652 0.417235,0.1695 l -0.45635,1.55159 q -0.156462,-0.0782 -0.35204,-0.11735 -0.182539,-0.0521 -0.456348,-0.0521 -0.35204,0 -0.638888,0.14342 -0.286849,0.13039 -0.495466,0.37812 -0.195577,0.24773 -0.312924,0.58673 -0.104308,0.32597 -0.104308,0.71712 v 3.12925 h -1.708048 z"
           style="font-weight:bold;font-size:66.6667px;line-height:1.25;font-family:'Product Sans';-inkscape-font-specification:'Product Sans Bold';white-space:pre;fill:#666666;stroke-width:0.195578"
           id="path15730-7-4-0-2-5-0-6"
           transform="matrix(5.0886134,0,0,5.0886134,-152.80683,-135.73143)" />
        <path
           d="m 68.570495,104.82178 q 0.743196,0 1.356008,0.26077 0.625849,0.24774 1.06916,0.70408 0.456347,0.44331 0.70408,1.06916 0.26077,0.62585 0.26077,1.36905 0,0.7432 -0.26077,1.36905 -0.247733,0.62584 -0.70408,1.08219 -0.443311,0.44331 -1.06916,0.70408 -0.612812,0.24774 -1.356008,0.24774 -0.743196,0 -1.369045,-0.24774 -0.612812,-0.26077 -1.06916,-0.70408 -0.44331,-0.45635 -0.704082,-1.08219 -0.247731,-0.62585 -0.247731,-1.36905 0,-0.7432 0.247731,-1.36905 0.260772,-0.62585 0.704082,-1.06916 0.456348,-0.45634 1.06916,-0.70408 0.625849,-0.26077 1.369045,-0.26077 z m 0,5.22845 q 0.325964,0 0.625849,-0.11734 0.312925,-0.13039 0.547618,-0.36508 0.234694,-0.2347 0.36508,-0.5737 0.143423,-0.339 0.143423,-0.76927 0,-0.43027 -0.143423,-0.76927 -0.130386,-0.33901 -0.36508,-0.5737 -0.234693,-0.23469 -0.547618,-0.35204 -0.299885,-0.13038 -0.625849,-0.13038 -0.339001,0 -0.638888,0.13038 -0.299886,0.11735 -0.534579,0.35204 -0.234694,0.23469 -0.378119,0.5737 -0.130384,0.339 -0.130384,0.76927 0,0.43027 0.130384,0.76927 0.143425,0.339 0.378119,0.5737 0.234693,0.23469 0.534579,0.36508 0.299887,0.11734 0.638888,0.11734 z"
           style="font-weight:bold;font-size:66.6667px;line-height:1.25;font-family:'Product Sans';-inkscape-font-specification:'Product Sans Bold';white-space:pre;fill:#666666;stroke-width:0.195578"
           id="path15732-5-18-8-6-9-3-1"
           transform="matrix(5.0886134,0,0,5.0886134,-152.80683,-135.73143)" />
        <path
           d="m 72.064785,112.67098 q 0.104308,0.0652 0.195578,0.0913 0.104307,0.0261 0.247733,0.0261 0.586733,0 0.586733,-0.76928 v -6.98865 h 1.708046 v 7.04081 q 0,0.62585 -0.169499,1.05612 -0.169502,0.44331 -0.45635,0.71712 -0.286846,0.2738 -0.664965,0.39115 -0.378116,0.13039 -0.808388,0.13039 -0.325963,0 -0.586735,-0.0522 -0.26077,-0.0391 -0.482424,-0.13038 z m 1.877548,-8.56632 q -0.221655,0 -0.430272,-0.0782 -0.195578,-0.0913 -0.35204,-0.23469 -0.143423,-0.15646 -0.234693,-0.35204 -0.07823,-0.19558 -0.07823,-0.43027 0,-0.2347 0.07823,-0.43028 0.09127,-0.19557 0.234693,-0.339 0.156462,-0.15646 0.35204,-0.23469 0.208617,-0.0913 0.430272,-0.0913 0.456349,0 0.782311,0.32596 0.325964,0.31293 0.325964,0.76928 0,0.45635 -0.325964,0.78231 -0.325962,0.31292 -0.782311,0.31292 z"
           style="font-weight:bold;font-size:66.6667px;line-height:1.25;font-family:'Product Sans';-inkscape-font-specification:'Product Sans Bold';white-space:pre;fill:#666666;stroke-width:0.195578"
           id="path15734-9-5-5-7-9-3-2"
           transform="matrix(5.0886134,0,0,5.0886134,-152.80683,-135.73143)" />
        <path
           d="m 82.352158,109.88073 q -0.443311,0.78232 -1.199546,1.26474 -0.743196,0.48243 -1.825395,0.48243 -0.730156,0 -1.356006,-0.24774 -0.612812,-0.26077 -1.069159,-0.71711 -0.45635,-0.45635 -0.71712,-1.06916 -0.247732,-0.62585 -0.247732,-1.36905 0,-0.69104 0.247732,-1.30385 0.247733,-0.62585 0.691041,-1.0822 0.443311,-0.46939 1.043084,-0.7432 0.612812,-0.27381 1.342968,-0.27381 0.769275,0 1.369047,0.26077 0.599771,0.24774 1.003966,0.70408 0.404195,0.44331 0.612812,1.05612 0.208615,0.61282 0.208615,1.32994 0,0.0913 0,0.15646 -0.01304,0.0782 -0.01304,0.14342 -0.01305,0.0652 -0.01305,0.14343 h -4.811218 q 0.05215,0.39115 0.208616,0.678 0.169501,0.27381 0.404194,0.46939 0.247733,0.18254 0.534581,0.27381 0.286847,0.0782 0.586734,0.0782 0.586734,0 0.96485,-0.26077 0.391158,-0.27381 0.612812,-0.67801 z m -1.551586,-2.47732 q -0.01305,-0.1695 -0.117347,-0.37812 -0.09127,-0.20861 -0.286848,-0.39115 -0.182539,-0.18254 -0.469387,-0.29989 -0.273809,-0.11734 -0.664965,-0.11734 -0.547618,0 -0.96485,0.31292 -0.417234,0.31292 -0.586735,0.87358 z"
           style="font-weight:bold;font-size:66.6667px;line-height:1.25;font-family:'Product Sans';-inkscape-font-specification:'Product Sans Bold';white-space:pre;fill:#666666;stroke-width:0.195578"
           id="path15736-6-97-0-5-1-3-9"
           transform="matrix(5.0886134,0,0,5.0886134,-152.80683,-135.73143)" />
        <path
           d="m 89.679797,109.78946 q -0.417232,0.80839 -1.173467,1.32993 -0.743196,0.50851 -1.86451,0.50851 -0.743196,0 -1.369045,-0.24774 -0.612812,-0.26077 -1.06916,-0.71711 -0.44331,-0.45635 -0.70408,-1.06916 -0.247733,-0.62585 -0.247733,-1.36905 0,-0.7432 0.247733,-1.36905 0.26077,-0.62585 0.70408,-1.06916 0.456348,-0.45634 1.06916,-0.70408 0.625849,-0.26077 1.369045,-0.26077 1.108275,0 1.86451,0.50851 0.756235,0.5085 1.108275,1.31689 l -1.564623,0.65192 q -0.221656,-0.44331 -0.573696,-0.66496 -0.339001,-0.23469 -0.860543,-0.23469 -0.339001,0 -0.638888,0.13038 -0.299885,0.13039 -0.534579,0.36508 -0.221656,0.23469 -0.35204,0.5737 -0.130386,0.339 -0.130386,0.75623 0,0.41723 0.130386,0.75623 0.130384,0.33901 0.35204,0.5737 0.234694,0.23469 0.534579,0.36508 0.299887,0.13038 0.638888,0.13038 0.534579,0 0.899659,-0.23469 0.378118,-0.24773 0.599772,-0.70408 z"
           style="font-weight:bold;font-size:66.6667px;line-height:1.25;font-family:'Product Sans';-inkscape-font-specification:'Product Sans Bold';white-space:pre;fill:#666666;stroke-width:0.195578"
           id="path15738-2-5-6-6-4-7-3"
           transform="matrix(5.0886134,0,0,5.0886134,-152.80683,-135.73143)" />
        <path
           d="m 91.361732,106.49071 h -1.121313 v -1.46031 h 1.121313 v -1.95578 h 1.708048 v 1.95578 h 1.564623 v 1.46031 H 93.06978 v 2.47733 q 0,0.22165 0.03912,0.41723 0.05215,0.18254 0.182539,0.31292 0.182541,0.20862 0.521542,0.20862 0.221656,0 0.35204,-0.0391 0.130386,-0.0521 0.247733,-0.13038 l 0.482426,1.49943 q -0.299888,0.14342 -0.651928,0.20862 -0.339001,0.0782 -0.756235,0.0782 -0.482424,0 -0.87358,-0.14343 -0.378118,-0.15646 -0.638888,-0.41723 -0.612812,-0.58673 -0.612812,-1.66893 z"
           style="font-weight:bold;font-size:66.6667px;line-height:1.25;font-family:'Product Sans';-inkscape-font-specification:'Product Sans Bold';white-space:pre;fill:#666666;stroke-width:0.195578"
           id="path15740-1-3-4-9-9-3-1"
           transform="matrix(5.0886134,0,0,5.0886134,-152.80683,-135.73143)" />
        <path
           d="M 95.155931,111.41928 Z"
           style="font-weight:bold;font-size:66.6667px;line-height:1.25;font-family:'Product Sans';-inkscape-font-specification:'Product Sans Bold';white-space:pre;fill:#666666;stroke-width:0.195578"
           id="path15742-7-8-6-8-1-2-9"
           transform="matrix(5.0886134,0,0,5.0886134,-152.80683,-135.73143)" />
        <path
           d="m 103.12246,111.6279 q -1.04308,0 -1.94274,-0.37812 -0.88662,-0.37812 -1.538549,-1.03005 -0.651926,-0.66496 -1.030044,-1.55158 -0.365078,-0.89966 -0.365078,-1.91666 0,-1.01701 0.365078,-1.90363 0.378118,-0.89966 1.030044,-1.55159 0.651929,-0.66496 1.538549,-1.04308 0.89966,-0.37812 1.94274,-0.37812 1.04308,0 1.9297,0.37812 0.89966,0.37812 1.55159,1.04308 0.65192,0.65193 1.017,1.55159 0.37812,0.88662 0.37812,1.90363 0,1.017 -0.37812,1.91666 -0.36508,0.88662 -1.017,1.55158 -0.65193,0.65193 -1.55159,1.03005 -0.88662,0.37812 -1.9297,0.37812 z m 0,-1.66894 q 0.65193,0 1.21258,-0.23469 0.5737,-0.23469 0.99093,-0.65193 0.43027,-0.41723 0.66497,-1.00396 0.24773,-0.59977 0.24773,-1.31689 0,-0.71712 -0.24773,-1.30386 -0.2347,-0.59977 -0.66497,-1.017 -0.41723,-0.41724 -0.99093,-0.65193 -0.56065,-0.23469 -1.21258,-0.23469 -0.65193,0 -1.22562,0.23469 -0.56066,0.23469 -0.99093,0.65193 -0.41723,0.41723 -0.66497,1.017 -0.23469,0.58674 -0.23469,1.30386 0,0.71712 0.23469,1.31689 0.24774,0.58673 0.66497,1.00396 0.43027,0.41724 0.99093,0.65193 0.57369,0.23469 1.22562,0.23469 z"
           style="font-weight:bold;font-size:66.6667px;line-height:1.25;font-family:'Product Sans';-inkscape-font-specification:'Product Sans Bold';white-space:pre;fill:#666666;stroke-width:0.195578"
           id="path15744-8-8-2-7-0-6-47"
           transform="matrix(5.0886134,0,0,5.0886134,-152.80683,-135.73143)" />
        <path
           d="m 113.14907,110.74128 h -0.10431 q -0.29988,0.36508 -0.73015,0.62585 -0.41724,0.26077 -1.0822,0.26077 -0.49547,0 -0.93878,-0.1695 -0.43027,-0.15647 -0.75623,-0.44331 -0.32597,-0.28685 -0.50851,-0.69105 -0.18254,-0.40419 -0.18254,-0.88662 0,-0.49546 0.19558,-0.88662 0.19558,-0.40419 0.54762,-0.69104 0.35204,-0.28685 0.82143,-0.43027 0.48243,-0.15646 1.04308,-0.15646 0.62585,0 1.03004,0.10431 0.4042,0.0913 0.66497,0.19557 v -0.19557 q 0,-0.50851 -0.40419,-0.83447 -0.4042,-0.339 -1.00397,-0.339 -0.88662,0 -1.49943,0.74319 l -1.23866,-0.8475 q 1.017,-1.27778 2.7772,-1.27778 1.4864,0 2.26871,0.70408 0.78231,0.69105 0.78231,2.06009 v 3.83333 h -1.68197 z m 0,-1.91667 q -0.29989,-0.14342 -0.62585,-0.22165 -0.31292,-0.0913 -0.69104,-0.0913 -0.61281,0 -0.95181,0.27381 -0.32597,0.26077 -0.32597,0.65192 0,0.39116 0.31293,0.62585 0.32596,0.2347 0.74319,0.2347 0.33901,0 0.62585,-0.11735 0.28685,-0.13039 0.48243,-0.32596 0.20862,-0.20862 0.31292,-0.46939 0.11735,-0.27381 0.11735,-0.56066 z"
           style="font-weight:bold;font-size:66.6667px;line-height:1.25;font-family:'Product Sans';-inkscape-font-specification:'Product Sans Bold';white-space:pre;fill:#666666;stroke-width:0.195578"
           id="path15746-5-31-5-2-7-5-8"
           transform="matrix(5.0886134,0,0,5.0886134,-152.80683,-135.73143)" />
        <path
           d="m 116.18705,102.08369 h 1.70805 v 5.08503 h 0.0782 l 2.13832,-2.13832 h 2.11224 v 0.10431 l -2.37301,2.30782 2.56859,3.87244 v 0.10431 h -2.02098 l -1.74716,-2.80328 -0.75623,0.74319 v 2.06009 h -1.70805 z"
           style="font-weight:bold;font-size:66.6667px;line-height:1.25;font-family:'Product Sans';-inkscape-font-specification:'Product Sans Bold';white-space:pre;fill:#666666;stroke-width:0.195578"
           id="path15748-7-89-8-8-5-2-4"
           transform="matrix(5.0886134,0,0,5.0886134,-152.80683,-135.73143)" />
        <path
           d="m 130.72547,489.45557 q -2.49242,0 -4.46558,-0.6231 -1.92124,-0.6231 -3.37514,-1.60968 -1.40199,-1.03851 -2.38857,-2.33664 -0.98658,-1.35006 -1.50583,-2.70012 l 6.07526,-2.59626 q 0.88273,1.97316 2.33664,2.95974 1.50583,0.93465 3.32322,0.93465 1.86931,0 2.95974,-0.67502 1.09043,-0.67503 1.09043,-1.60969 0,-1.0385 -0.93466,-1.66161 -0.88273,-0.67503 -3.11551,-1.19428 l -3.58285,-0.77888 q -1.19428,-0.25963 -2.49241,-0.8308 -1.24621,-0.57118 -2.28472,-1.45391 -1.0385,-0.88273 -1.71353,-2.12894 -0.67503,-1.24621 -0.67503,-2.90782 0,-1.86931 0.77888,-3.32322 0.8308,-1.4539 2.23279,-2.44049 1.40198,-1.0385 3.27129,-1.55775 1.92124,-0.57118 4.1021,-0.57118 3.63477,0 6.49066,1.45391 2.85589,1.40198 4.20595,4.5175 l -5.86756,2.38856 q -0.72695,-1.50583 -2.12894,-2.18086 -1.40198,-0.67503 -2.80396,-0.67503 -1.45391,0 -2.54434,0.6231 -1.09043,0.57118 -1.09043,1.50584 0,0.88273 0.88273,1.40198 0.93465,0.51925 2.49241,0.93465 l 3.8944,0.93466 q 3.8944,0.93466 5.76371,3.01167 1.92123,2.02508 1.92123,4.82905 0,1.66161 -0.77888,3.16744 -0.77888,1.50584 -2.23278,2.70012 -1.40199,1.14236 -3.42707,1.81739 -1.97317,0.67502 -4.41365,0.67502 z"
           style="font-weight:bold;font-family:'Product Sans';-inkscape-font-specification:'Product Sans Bold';fill:#a6a6a6"
           id="path1906" />
        <path
           d="m 148.27625,468.99701 h -4.46557 v -5.81564 h 4.46557 v -7.78879 h 6.80222 v 7.78879 h 6.23103 v 5.81564 h -6.23103 v 9.8658 q 0,0.88273 0.15577,1.66161 0.2077,0.72696 0.72696,1.24621 0.72695,0.8308 2.07701,0.8308 0.88273,0 1.40198,-0.15577 0.51925,-0.2077 0.98658,-0.51925 l 1.92124,5.97141 q -1.19428,0.57117 -2.59627,0.8308 -1.35005,0.31155 -3.01166,0.31155 -1.92124,0 -3.479,-0.57118 -1.50583,-0.6231 -2.54434,-1.66161 -2.44049,-2.33663 -2.44049,-6.64643 z"
           style="font-weight:bold;font-family:'Product Sans';-inkscape-font-specification:'Product Sans Bold';fill:#a6a6a6"
           id="path1908" />
        <path
           d="m 181.45646,485.92465 h -0.4154 q -1.19428,1.45391 -2.90782,2.49242 -1.66161,1.0385 -4.3098,1.0385 -1.97316,0 -3.73862,-0.67502 -1.71354,-0.62311 -3.01167,-1.76547 -1.29813,-1.14235 -2.02508,-2.75204 -0.72696,-1.60968 -0.72696,-3.53092 0,-1.97316 0.77888,-3.53092 0.77888,-1.60968 2.18086,-2.75204 1.40199,-1.14235 3.2713,-1.71353 1.92123,-0.62311 4.15402,-0.62311 2.49242,0 4.1021,0.41541 1.60968,0.36347 2.64819,0.77888 v -0.77888 q 0,-2.02509 -1.60968,-3.32322 -1.60969,-1.35006 -3.99825,-1.35006 -3.53092,0 -5.97141,2.95974 l -4.93291,-3.37514 q 4.05018,-5.08868 11.06009,-5.08868 5.91949,0 9.03501,2.80396 3.11551,2.75204 3.11551,8.2042 v 15.26604 h -6.69836 z m 0,-7.63302 q -1.19428,-0.57117 -2.49241,-0.88273 -1.24621,-0.36347 -2.75204,-0.36347 -2.44049,0 -3.79055,1.09043 -1.29813,1.0385 -1.29813,2.59626 0,1.55776 1.2462,2.49242 1.29814,0.93465 2.95974,0.93465 1.35006,0 2.49242,-0.46732 1.14236,-0.51926 1.92124,-1.29814 0.8308,-0.8308 1.2462,-1.86931 0.46733,-1.09043 0.46733,-2.23279 z"
           style="font-weight:bold;font-family:'Product Sans';-inkscape-font-specification:'Product Sans Bold';fill:#a6a6a6"
           id="path1910" />
        <path
           d="m 205.03058,500.67144 q -2.70011,0 -4.82905,-0.72696 -2.07701,-0.67502 -3.63477,-1.81738 -1.55776,-1.09043 -2.59626,-2.44049 -1.03851,-1.35006 -1.50584,-2.70012 l 6.49066,-2.59626 q 0.72696,2.02509 2.38857,3.11552 1.66161,1.14235 3.68669,1.14235 3.21937,0 5.08868,-2.02508 1.86931,-1.97316 1.86931,-5.55601 v -1.76546 h -0.4154 q -1.19428,1.66161 -3.16744,2.64819 -1.92124,0.93466 -4.56943,0.93466 -2.28471,0 -4.46557,-0.93466 -2.12894,-0.93466 -3.79055,-2.64819 -1.66161,-1.76546 -2.70012,-4.20595 -1.0385,-2.44049 -1.0385,-5.45216 0,-3.01166 1.0385,-5.45215 1.03851,-2.49242 2.70012,-4.20595 1.66161,-1.76546 3.79055,-2.70012 2.18086,-0.93465 4.46557,-0.93465 2.64819,0 4.56943,0.98658 1.97316,0.93465 3.16744,2.59626 h 0.4154 v -2.75204 h 6.49067 v 23.62601 q 0,3.21937 -0.98658,5.76371 -0.98658,2.59627 -2.75204,4.36173 -1.76546,1.81738 -4.25788,2.75204 -2.44049,0.98658 -5.45216,0.98658 z m 0.25963,-17.91423 q 1.24621,0 2.44049,-0.46733 1.24621,-0.46733 2.18086,-1.35006 0.93466,-0.93465 1.50584,-2.23278 0.57117,-1.35006 0.57117,-3.0636 0,-1.71353 -0.57117,-3.06359 -0.57118,-1.35006 -1.50584,-2.23279 -0.93465,-0.93465 -2.18086,-1.40198 -1.19428,-0.46733 -2.44049,-0.46733 -1.24621,0 -2.44049,0.46733 -1.19428,0.46733 -2.12894,1.40198 -0.93465,0.93466 -1.50583,2.28472 -0.57118,1.29813 -0.57118,3.01166 0,1.71354 0.57118,3.0636 0.57118,1.29813 1.50583,2.23278 0.93466,0.88273 2.12894,1.35006 1.19428,0.46733 2.44049,0.46733 z"
           style="font-weight:bold;font-family:'Product Sans';-inkscape-font-specification:'Product Sans Bold';fill:#a6a6a6"
           id="path1912" />
        <path
           d="m 248.12863,482.49758 q -1.76546,3.11552 -4.77713,5.03676 -2.95974,1.92123 -7.26954,1.92123 -2.90782,0 -5.40023,-0.98658 -2.44049,-1.0385 -4.25788,-2.85589 -1.81738,-1.81738 -2.85589,-4.25787 -0.98658,-2.49242 -0.98658,-5.45216 0,-2.75204 0.98658,-5.19253 0.98658,-2.49241 2.75204,-4.3098 1.76546,-1.86931 4.15403,-2.95974 2.44049,-1.09043 5.3483,-1.09043 3.06359,0 5.45216,1.0385 2.38856,0.98658 3.99825,2.80397 1.60968,1.76546 2.44049,4.20595 0.8308,2.44049 0.8308,5.29638 0,0.36348 0,0.6231 -0.0519,0.31155 -0.0519,0.57118 -0.0519,0.25963 -0.0519,0.57118 h -19.16044 q 0.20771,1.55776 0.83081,2.70012 0.67503,1.09043 1.60968,1.86931 0.98658,0.72695 2.12894,1.09043 1.14236,0.31155 2.33664,0.31155 2.33664,0 3.84247,-1.03851 1.55776,-1.09043 2.44049,-2.70011 z m -6.17911,-9.8658 q -0.0519,-0.67503 -0.46733,-1.50584 -0.36348,-0.8308 -1.14236,-1.55776 -0.72695,-0.72695 -1.86931,-1.19428 -1.09043,-0.46733 -2.64819,-0.46733 -2.18086,0 -3.84247,1.24621 -1.66161,1.24621 -2.33664,3.479 z"
           style="font-weight:bold;font-family:'Product Sans';-inkscape-font-specification:'Product Sans Bold';fill:#a6a6a6"
           id="path1914" />
        <path
           d="M 249.99792,488.62477 Z"
           style="font-weight:bold;font-family:'Product Sans';-inkscape-font-specification:'Product Sans Bold';fill:#a6a6a6"
           id="path1916" />
        <path
           d="m 278.60874,489.45557 q -3.42707,0 -6.17911,-1.40198 -2.75204,-1.45391 -4.72521,-3.94632 -1.92123,-2.49242 -2.95974,-5.86756 -1.0385,-3.42707 -1.0385,-7.37339 0,-3.94633 1.0385,-7.32147 1.03851,-3.42707 2.95974,-5.91949 1.97317,-2.49241 4.72521,-3.89439 2.75204,-1.45391 6.17911,-1.45391 3.42707,0 6.17911,1.45391 2.75204,1.40198 4.67328,3.89439 1.97316,2.49242 3.01166,5.91949 1.03851,3.37514 1.03851,7.32147 0,3.94632 -1.03851,7.37339 -1.0385,3.37514 -3.01166,5.86756 -1.92124,2.49241 -4.67328,3.94632 -2.75204,1.40198 -6.17911,1.40198 z m 0,-6.43873 q 1.86931,0 3.37514,-0.88273 1.50584,-0.93466 2.54434,-2.54434 1.09043,-1.66161 1.60969,-3.8944 0.57117,-2.23279 0.57117,-4.82905 0,-2.64819 -0.57117,-4.82906 -0.51926,-2.23278 -1.60969,-3.84247 -1.0385,-1.66161 -2.54434,-2.54434 -1.50583,-0.93465 -3.37514,-0.93465 -1.92124,0 -3.42707,0.93465 -1.50584,0.88273 -2.54434,2.54434 -1.03851,1.60969 -1.60969,3.84247 -0.51925,2.18087 -0.51925,4.82906 0,2.59626 0.51925,4.82905 0.57118,2.23279 1.60969,3.8944 1.0385,1.60968 2.54434,2.54434 1.50583,0.88273 3.42707,0.88273 z"
           style="font-weight:bold;font-family:'Product Sans';-inkscape-font-specification:'Product Sans Bold';fill:#a6a6a6"
           id="path1918" />
      </g>
    </g>
  </g>
</svg>
