<?xml version="1.0" encoding="UTF-8" standalone="no"?>
<!-- Created with Inkscape (http://www.inkscape.org/) -->

<svg
   width="84.272316mm"
   height="24.898239mm"
   viewBox="0 0 84.272316 24.898239"
   version="1.1"
   id="svg2024"
   inkscape:version="1.2.2 (b0a8486541, 2022-12-01)"
   sodipodi:docname="oak-stage-0-negative-colour.svg"
   xmlns:inkscape="http://www.inkscape.org/namespaces/inkscape"
   xmlns:sodipodi="http://sodipodi.sourceforge.net/DTD/sodipodi-0.dtd"
   xmlns="http://www.w3.org/2000/svg"
   xmlns:svg="http://www.w3.org/2000/svg">
  <sodipodi:namedview
     id="namedview2026"
     pagecolor="#ffffff"
     bordercolor="#000000"
     borderopacity="0.25"
     inkscape:showpageshadow="2"
     inkscape:pageopacity="0.0"
     inkscape:pagecheckerboard="0"
     inkscape:deskcolor="#d1d1d1"
     inkscape:document-units="mm"
     showgrid="false"
     inkscape:zoom="1.2268576"
     inkscape:cx="641.47625"
     inkscape:cy="185.02555"
     inkscape:window-width="2560"
     inkscape:window-height="1403"
     inkscape:window-x="0"
     inkscape:window-y="0"
     inkscape:window-maximized="1"
     inkscape:current-layer="layer1" />
  <defs
     id="defs2021">
    <rect
       x="117.74503"
       y="441.03894"
       width="544.48914"
       height="88.909904"
       id="rect24124-0-3-9-3-8-9-2-2" />
  </defs>
  <g
     inkscape:label="Layer 1"
     inkscape:groupmode="layer"
     id="layer1"
     transform="translate(668.8565,132.00421)">
    <g
       id="g1093-4-9-8-5-0-6-5"
       transform="matrix(0.71967634,0,0,0.71967634,-697.84943,-143.48614)">
      <ellipse
         id="path9713-6-2-2-3-3-4-6-0-6-2-8-9"
         cx="48.352718"
         cy="23.616285"
         rx="3.4338517"
         ry="4.666791"
         style="fill:#ffbf00;fill-opacity:1;stroke:#737373;stroke-width:0.18087;stroke-miterlimit:4;stroke-dasharray:none;stroke-opacity:1" />
      <g
         id="g1086-4-2-2-6-7-9-2"
         transform="translate(0.00621353)">
        <path
           style="fill:#34a852;fill-opacity:1;stroke:#6d6d6d;stroke-width:0.18087;stroke-linecap:butt;stroke-linejoin:round;stroke-miterlimit:4;stroke-dasharray:none;stroke-opacity:1"
           d="m 40.370287,24.132384 7.070141,-0.107451 0.0395,10.637571 c 0,0 -6.003695,0.21491 -7.109642,-10.53012 z"
           id="path9925-6-6-9-6-5-4-1-1-4-6-0-2"
           sodipodi:nodetypes="cccc" />
        <path
           style="fill:#34a852;fill-opacity:1;stroke:#737373;stroke-width:0.18087;stroke-linecap:butt;stroke-linejoin:round;stroke-miterlimit:4;stroke-dasharray:none;stroke-opacity:1"
           d="m 56.322723,24.132381 -7.070141,-0.107451 -0.0395,10.637574 c 0,0 6.003695,0.2149 7.109641,-10.530123 z"
           id="path9925-6-6-9-6-5-6-7-7-0-0-1-6-8"
           sodipodi:nodetypes="cccc" />
      </g>
      <path
         id="path10128-9-6-0-6-5-6-8-5-0-3-8-9"
         style="fill:#137333;fill-opacity:1;stroke:#737373;stroke-width:0.18087;stroke-miterlimit:4;stroke-dasharray:none;stroke-opacity:1"
         d="m 48.350392,16.044738 a 7.9903085,6.9200343 0 0 0 -7.935184,6.151089 h 15.875021 a 7.9903085,6.9200343 0 0 0 -7.939837,-6.151089 z" />
    </g>
    <g
       aria-label="Project Oak"
       transform="matrix(0.19557787,0,0,0.19557787,-677.85071,-218.63405)"
       id="text24122-3-5-1-4-2-7-7"
       style="font-size:66.6667px;line-height:1.25;white-space:pre;shape-inside:url(#rect24124);fill:#ffffff">
      <path
         d="m 122.54414,502.13418 v -47.73336 h 16.80001 q 3.4,0 6.33334,1.13333 3,1.06667 5.2,3.06667 2.2,2 3.46667,4.8 1.26667,2.73334 1.26667,6.06667 0,3.4 -1.26667,6.20001 -1.26667,2.73333 -3.46667,4.73333 -2.2,2 -5.2,3.13334 -2.93334,1.06666 -6.33334,1.06666 h -7.8 v 17.53335 z m 16.93335,-26.06668 q 3.53333,0 5.33333,-2.00001 1.8,-2 1.8,-4.6 0,-1.26667 -0.46666,-2.46667 -0.4,-1.2 -1.33334,-2.06666 -0.86667,-0.93334 -2.2,-1.46667 -1.33333,-0.53333 -3.13333,-0.53333 h -7.93334 v 13.13334 z"
         style="font-weight:bold;font-family:'Product Sans';-inkscape-font-specification:'Product Sans Bold';fill:#ffffff"
         id="path15728-1-7-1-6-1-9-3" />
      <path
         d="m 160.9441,469.46749 h 8.20001 v 4.53334 h 0.53333 q 0.6,-1.2 1.6,-2.2 1,-1 2.2,-1.73334 1.26667,-0.73333 2.66667,-1.13333 1.46667,-0.4 2.86667,-0.4 1.73333,0 2.93333,0.33333 1.26667,0.33334 2.13334,0.86667 l -2.33334,7.93334 q -0.8,-0.4 -1.8,-0.6 -0.93333,-0.26667 -2.33333,-0.26667 -1.8,0 -3.26667,0.73333 -1.46667,0.66667 -2.53334,1.93334 -1,1.26666 -1.6,3 -0.53333,1.66667 -0.53333,3.66667 v 16.00001 h -8.73334 z"
         style="font-weight:bold;font-family:'Product Sans';-inkscape-font-specification:'Product Sans Bold';fill:#ffffff"
         id="path15730-7-4-0-2-5-0-6" />
      <path
         d="m 201.54405,468.40082 q 3.8,0 6.93334,1.33334 3.2,1.26667 5.46667,3.6 2.33333,2.26667 3.6,5.46667 1.33333,3.2 1.33333,7 0,3.80001 -1.33333,7.00001 -1.26667,3.2 -3.6,5.53333 -2.26667,2.26667 -5.46667,3.60001 -3.13334,1.26666 -6.93334,1.26666 -3.8,0 -7,-1.26666 -3.13334,-1.33334 -5.46667,-3.60001 -2.26667,-2.33333 -3.60001,-5.53333 -1.26666,-3.2 -1.26666,-7.00001 0,-3.8 1.26666,-7 1.33334,-3.2 3.60001,-5.46667 2.33333,-2.33333 5.46667,-3.6 3.2,-1.33334 7,-1.33334 z m 0,26.73335 q 1.66667,0 3.2,-0.6 1.6,-0.66666 2.8,-1.86667 1.2,-1.2 1.86667,-2.93333 0.73333,-1.73333 0.73333,-3.93334 0,-2.2 -0.73333,-3.93333 -0.66667,-1.73334 -1.86667,-2.93334 -1.2,-1.2 -2.8,-1.8 -1.53333,-0.66666 -3.2,-0.66666 -1.73333,0 -3.26667,0.66666 -1.53333,0.6 -2.73333,1.8 -1.2,1.2 -1.93334,2.93334 -0.66666,1.73333 -0.66666,3.93333 0,2.20001 0.66666,3.93334 0.73334,1.73333 1.93334,2.93333 1.2,1.20001 2.73333,1.86667 1.53334,0.6 3.26667,0.6 z"
         style="font-weight:bold;font-family:'Product Sans';-inkscape-font-specification:'Product Sans Bold';fill:#ffffff"
         id="path15732-5-18-8-6-9-3-1" />
      <path
         d="m 219.41054,508.53418 q 0.53333,0.33333 1,0.46667 0.53333,0.13333 1.26667,0.13333 3,0 3,-3.93334 v -35.73335 h 8.73333 v 36.00002 q 0,3.2 -0.86666,5.4 -0.86667,2.26667 -2.33334,3.66667 -1.46666,1.4 -3.4,2 -1.93333,0.66667 -4.13333,0.66667 -1.66667,0 -3.00001,-0.26667 -1.33333,-0.2 -2.46666,-0.66666 z m 9.6,-43.80002 q -1.13333,0 -2.2,-0.4 -1,-0.46667 -1.8,-1.2 -0.73333,-0.80001 -1.2,-1.80001 -0.4,-1 -0.4,-2.2 0,-1.2 0.4,-2.2 0.46667,-1 1.2,-1.73333 0.8,-0.8 1.8,-1.2 1.06667,-0.46667 2.2,-0.46667 2.33334,0 4,1.66667 1.66667,1.6 1.66667,3.93333 0,2.33334 -1.66667,4.00001 -1.66666,1.6 -4,1.6 z"
         style="font-weight:bold;font-family:'Product Sans';-inkscape-font-specification:'Product Sans Bold';fill:#ffffff"
         id="path15734-9-5-5-7-9-3-2" />
      <path
         d="m 272.01042,494.26751 q -2.26667,4 -6.13334,6.46667 -3.8,2.46666 -9.33334,2.46666 -3.73333,0 -6.93333,-1.26666 -3.13334,-1.33334 -5.46667,-3.66667 -2.33334,-2.33334 -3.66667,-5.46667 -1.26667,-3.2 -1.26667,-7.00001 0,-3.53333 1.26667,-6.66667 1.26667,-3.2 3.53333,-5.53333 2.26667,-2.4 5.33334,-3.8 3.13334,-1.40001 6.86667,-1.40001 3.93334,0 7.00001,1.33334 3.06666,1.26667 5.13333,3.6 2.06667,2.26667 3.13334,5.4 1.06666,3.13334 1.06666,6.80001 0,0.46666 0,0.8 -0.0667,0.4 -0.0667,0.73333 -0.0667,0.33333 -0.0667,0.73334 h -24.60001 q 0.26666,2 1.06666,3.46666 0.86667,1.4 2.06667,2.40001 1.26667,0.93333 2.73334,1.4 1.46666,0.4 3,0.4 3,0 4.93333,-1.33334 2.00001,-1.4 3.13334,-3.46667 z m -7.93334,-12.66668 q -0.0667,-0.86667 -0.6,-1.93333 -0.46666,-1.06667 -1.46667,-2 -0.93333,-0.93334 -2.4,-1.53334 -1.4,-0.6 -3.4,-0.6 -2.8,0 -4.93333,1.6 -2.13334,1.6 -3.00001,4.46667 z"
         style="font-weight:bold;font-family:'Product Sans';-inkscape-font-specification:'Product Sans Bold';fill:#ffffff"
         id="path15736-6-97-0-5-1-3-9" />
      <path
         d="m 309.47703,493.80084 q -2.13333,4.13333 -6,6.8 -3.8,2.6 -9.53334,2.6 -3.8,0 -7,-1.26666 -3.13334,-1.33334 -5.46667,-3.66667 -2.26667,-2.33334 -3.6,-5.46667 -1.26667,-3.2 -1.26667,-7.00001 0,-3.8 1.26667,-7 1.33333,-3.2 3.6,-5.46667 2.33333,-2.33333 5.46667,-3.6 3.2,-1.33334 7,-1.33334 5.66667,0 9.53334,2.60001 3.86667,2.6 5.66667,6.73333 l -8,3.33334 q -1.13334,-2.26667 -2.93334,-3.4 -1.73333,-1.2 -4.4,-1.2 -1.73333,0 -3.26667,0.66666 -1.53333,0.66667 -2.73333,1.86667 -1.13334,1.2 -1.8,2.93334 -0.66667,1.73333 -0.66667,3.86666 0,2.13334 0.66667,3.86667 0.66666,1.73334 1.8,2.93334 1.2,1.2 2.73333,1.86667 1.53334,0.66666 3.26667,0.66666 2.73333,0 4.6,-1.2 1.93334,-1.26667 3.06667,-3.6 z"
         style="font-weight:bold;font-family:'Product Sans';-inkscape-font-specification:'Product Sans Bold';fill:#ffffff"
         id="path15738-2-5-6-6-4-7-3" />
      <path
         d="m 318.07685,476.93416 h -5.73333 v -7.46667 h 5.73333 v -10 h 8.73334 v 10 h 8 v 7.46667 h -8 v 12.66668 q 0,1.13333 0.2,2.13333 0.26667,0.93333 0.93333,1.6 0.93334,1.06667 2.66667,1.06667 1.13334,0 1.8,-0.2 0.66667,-0.26667 1.26667,-0.66667 l 2.46667,7.66667 q -1.53334,0.73334 -3.33334,1.06667 -1.73333,0.4 -3.86667,0.4 -2.46666,0 -4.46666,-0.73333 -1.93334,-0.8 -3.26667,-2.13334 -3.13334,-3 -3.13334,-8.53334 z"
         style="font-weight:bold;font-family:'Product Sans';-inkscape-font-specification:'Product Sans Bold';fill:#ffffff"
         id="path15740-1-3-4-9-9-3-1" />
      <path
         d="M 337.47679,502.13418 Z"
         style="font-weight:bold;font-family:'Product Sans';-inkscape-font-specification:'Product Sans Bold';fill:#ffffff"
         id="path15742-7-8-6-8-1-2-9" />
      <path
         d="m 378.21007,503.20084 q -5.33333,0 -9.93334,-1.93333 -4.53333,-1.93334 -7.86667,-5.26667 -3.33333,-3.4 -5.26667,-7.93334 -1.86666,-4.6 -1.86666,-9.8 0,-5.20001 1.86666,-9.73334 1.93334,-4.6 5.26667,-7.93334 3.33334,-3.4 7.86667,-5.33334 4.60001,-1.93333 9.93334,-1.93333 5.33334,0 9.86668,1.93333 4.6,1.93334 7.93333,5.33334 3.33334,3.33334 5.20001,7.93334 1.93333,4.53333 1.93333,9.73334 0,5.2 -1.93333,9.8 -1.86667,4.53334 -5.20001,7.93334 -3.33333,3.33333 -7.93333,5.26667 -4.53334,1.93333 -9.86668,1.93333 z m 0,-8.53333 q 3.33334,0 6.20001,-1.20001 2.93333,-1.2 5.06667,-3.33333 2.2,-2.13333 3.4,-5.13334 1.26667,-3.06666 1.26667,-6.73333 0,-3.66667 -1.26667,-6.66667 -1.2,-3.06667 -3.4,-5.20001 -2.13334,-2.13333 -5.06667,-3.33333 -2.86667,-1.2 -6.20001,-1.2 -3.33333,0 -6.26667,1.2 -2.86666,1.2 -5.06667,3.33333 -2.13333,2.13334 -3.4,5.20001 -1.2,3 -1.2,6.66667 0,3.66667 1.2,6.73333 1.26667,3.00001 3.4,5.13334 2.20001,2.13333 5.06667,3.33333 2.93334,1.20001 6.26667,1.20001 z"
         style="font-weight:bold;font-family:'Product Sans';-inkscape-font-specification:'Product Sans Bold';fill:#ffffff"
         id="path15744-8-8-2-7-0-6-47" />
      <path
         d="m 429.47666,498.66751 h -0.53333 q -1.53333,1.86667 -3.73333,3.2 -2.13334,1.33333 -5.53334,1.33333 -2.53334,0 -4.8,-0.86666 -2.2,-0.8 -3.86667,-2.26667 -1.66667,-1.46667 -2.6,-3.53334 -0.93334,-2.06666 -0.93334,-4.53333 0,-2.53334 1,-4.53334 1,-2.06667 2.80001,-3.53333 1.8,-1.46667 4.2,-2.2 2.46667,-0.80001 5.33333,-0.80001 3.20001,0 5.26667,0.53334 2.06667,0.46667 3.4,1 v -1 q 0,-2.6 -2.06666,-4.26667 -2.06667,-1.73333 -5.13334,-1.73333 -4.53333,0 -7.66667,3.8 l -6.33334,-4.33334 q 5.20001,-6.53334 14.20001,-6.53334 7.60001,0 11.60001,3.60001 4,3.53333 4,10.53334 v 19.60001 h -8.60001 z m 0,-9.80001 q -1.53333,-0.73333 -3.2,-1.13333 -1.6,-0.46667 -3.53333,-0.46667 -3.13334,0 -4.86667,1.4 -1.66667,1.33334 -1.66667,3.33334 0,2 1.6,3.2 1.66667,1.2 3.8,1.2 1.73334,0 3.20001,-0.6 1.46666,-0.66667 2.46666,-1.66667 1.06667,-1.06667 1.6,-2.4 0.6,-1.4 0.6,-2.86667 z"
         style="font-weight:bold;font-family:'Product Sans';-inkscape-font-specification:'Product Sans Bold';fill:#ffffff"
         id="path15746-5-31-5-2-7-5-8" />
      <path
         d="m 445.01001,454.40082 h 8.73334 v 26.00001 h 0.4 l 10.93334,-10.93334 h 10.8 v 0.53334 l -12.13334,11.8 13.13334,19.80001 v 0.53334 h -10.33334 l -8.93334,-14.33334 -3.86666,3.8 v 10.53334 h -8.73334 z"
         style="font-weight:bold;font-family:'Product Sans';-inkscape-font-specification:'Product Sans Bold';fill:#ffffff"
         id="path15748-7-89-8-8-5-2-4" />
    </g>
    <g
       aria-label="Stage0"
       transform="matrix(0.19651719,0,0,0.19651719,-676.97448,-205.17344)"
       id="text24122-8-2-1-6-2-8-6-5"
       style="font-size:51.9253px;line-height:1.25;white-space:pre;shape-inside:url(#rect24124-0-3-9-3-8-9-2-2);display:inline;fill:#ffffff">
      <path
         d="m 132.8544,487.81159 q -2.38856,0 -4.56942,-0.67503 -2.18087,-0.67503 -3.99825,-2.02509 -1.81739,-1.35006 -3.16744,-3.27129 -1.35006,-1.97316 -2.12894,-4.56943 l 6.59451,-2.59626 q 0.72696,2.80396 2.54434,4.67327 1.81739,1.81739 4.77713,1.81739 1.09043,0 2.07701,-0.25963 1.03851,-0.31155 1.81739,-0.8308 0.8308,-0.57118 1.29813,-1.40198 0.46733,-0.83081 0.46733,-1.92124 0,-1.03851 -0.36348,-1.86931 -0.36348,-0.83081 -1.24621,-1.55776 -0.8308,-0.72695 -2.23279,-1.40198 -1.35005,-0.67503 -3.37514,-1.40199 l -2.28471,-0.8308 q -1.50584,-0.51925 -3.0636,-1.40198 -1.50583,-0.88273 -2.75204,-2.12894 -1.2462,-1.24621 -2.07701,-2.90782 -0.77888,-1.71353 -0.77888,-3.84247 0,-2.18086 0.83081,-4.05017 0.88273,-1.92124 2.44048,-3.32322 1.60969,-1.45391 3.79055,-2.23279 2.23279,-0.83081 4.93291,-0.83081 2.80396,0 4.82905,0.77888 2.07701,0.72696 3.47899,1.92124 1.45391,1.14236 2.33664,2.54434 0.88273,1.40198 1.29813,2.64819 l -6.17911,2.59626 q -0.51925,-1.55775 -1.92123,-2.80396 -1.35006,-1.24621 -3.73862,-1.24621 -2.28472,0 -3.79055,1.09043 -1.50583,1.03851 -1.50583,2.75204 0,1.66161 1.4539,2.85589 1.45391,1.14236 4.62136,2.23279 l 2.33663,0.77888 q 2.23279,0.77888 4.05018,1.81739 1.86931,0.98658 3.16744,2.38856 1.35006,1.40198 2.02509,3.21937 0.72695,1.76546 0.72695,4.1021 0,2.90782 -1.19428,5.03675 -1.14236,2.07701 -2.95974,3.42707 -1.81739,1.35006 -4.1021,2.02509 -2.28471,0.67503 -4.46558,0.67503 z"
         style="font-weight:bold;font-family:'Product Sans';-inkscape-font-specification:'Product Sans Bold';fill:#ffffff"
         id="path2158" />
      <path
         d="m 152.0149,467.35302 h -4.46558 v -5.81563 h 4.46558 v -7.7888 h 6.80221 v 7.7888 h 6.23104 v 5.81563 h -6.23104 v 9.86581 q 0,0.88273 0.15578,1.66161 0.2077,0.72695 0.72695,1.2462 0.72696,0.83081 2.07702,0.83081 0.88273,0 1.40198,-0.15578 0.51925,-0.2077 0.98658,-0.51925 l 1.92124,5.97141 q -1.19429,0.57118 -2.59627,0.8308 -1.35006,0.31156 -3.01167,0.31156 -1.92123,0 -3.47899,-0.57118 -1.50584,-0.62311 -2.54434,-1.66161 -2.44049,-2.33664 -2.44049,-6.64644 z"
         style="font-weight:bold;font-family:'Product Sans';-inkscape-font-specification:'Product Sans Bold';fill:#ffffff"
         id="path2160" />
      <path
         d="m 185.19511,484.28067 h -0.4154 q -1.19429,1.45391 -2.90782,2.49241 -1.66161,1.03851 -4.3098,1.03851 -1.97316,0 -3.73862,-0.67503 -1.71354,-0.6231 -3.01167,-1.76546 -1.29813,-1.14236 -2.02509,-2.75204 -0.72695,-1.60969 -0.72695,-3.53092 0,-1.97316 0.77888,-3.53092 0.77888,-1.60969 2.18086,-2.75204 1.40198,-1.14236 3.27129,-1.71354 1.92124,-0.6231 4.15403,-0.6231 2.49241,0 4.1021,0.4154 1.60968,0.36348 2.64819,0.77888 v -0.77888 q 0,-2.02509 -1.60969,-3.32322 -1.60968,-1.35006 -3.99824,-1.35006 -3.53093,0 -5.97141,2.95975 l -4.93291,-3.37515 q 4.05018,-5.08868 11.06009,-5.08868 5.91949,0 9.035,2.80397 3.11552,2.75204 3.11552,8.2042 v 15.26603 h -6.69836 z m 0,-7.63302 q -1.19428,-0.57118 -2.49242,-0.88273 -1.2462,-0.36348 -2.75204,-0.36348 -2.44049,0 -3.79054,1.09043 -1.29814,1.03851 -1.29814,2.59627 0,1.55776 1.24621,2.49241 1.29813,0.93466 2.95974,0.93466 1.35006,0 2.49242,-0.46733 1.14235,-0.51925 1.92123,-1.29813 0.83081,-0.83081 1.24621,-1.86931 0.46733,-1.09043 0.46733,-2.23279 z"
         style="font-weight:bold;font-family:'Product Sans';-inkscape-font-specification:'Product Sans Bold';fill:#ffffff"
         id="path2162" />
      <path
         d="m 208.76923,499.02745 q -2.70011,0 -4.82905,-0.72695 -2.07701,-0.67503 -3.63477,-1.81739 -1.55776,-1.09043 -2.59627,-2.44049 -1.0385,-1.35005 -1.50583,-2.70011 l 6.49066,-2.59627 q 0.72696,2.02509 2.38857,3.11552 1.66161,1.14236 3.68669,1.14236 3.21937,0 5.08868,-2.02509 1.86931,-1.97316 1.86931,-5.55601 v -1.76546 h -0.4154 q -1.19428,1.66161 -3.16744,2.64819 -1.92124,0.93466 -4.56943,0.93466 -2.28471,0 -4.46558,-0.93466 -2.12893,-0.93465 -3.79054,-2.64819 -1.66161,-1.76546 -2.70012,-4.20595 -1.0385,-2.44048 -1.0385,-5.45215 0,-3.01167 1.0385,-5.45216 1.03851,-2.49241 2.70012,-4.20595 1.66161,-1.76546 3.79054,-2.70011 2.18087,-0.93466 4.46558,-0.93466 2.64819,0 4.56943,0.98658 1.97316,0.93466 3.16744,2.59627 h 0.4154 v -2.75204 h 6.49066 v 23.62601 q 0,3.21937 -0.98658,5.76371 -0.98658,2.59626 -2.75204,4.36172 -1.76546,1.81739 -4.25787,2.75204 -2.44049,0.98658 -5.45216,0.98658 z m 0.25963,-17.91423 q 1.24621,0 2.44049,-0.46732 1.2462,-0.46733 2.18086,-1.35006 0.93466,-0.93466 1.50583,-2.23279 0.57118,-1.35006 0.57118,-3.06359 0,-1.71354 -0.57118,-3.06359 -0.57117,-1.35006 -1.50583,-2.23279 -0.93466,-0.93466 -2.18086,-1.40199 -1.19428,-0.46732 -2.44049,-0.46732 -1.24621,0 -2.44049,0.46732 -1.19428,0.46733 -2.12894,1.40199 -0.93465,0.93465 -1.50583,2.28471 -0.57118,1.29813 -0.57118,3.01167 0,1.71353 0.57118,3.06359 0.57118,1.29813 1.50583,2.23279 0.93466,0.88273 2.12894,1.35006 1.19428,0.46732 2.44049,0.46732 z"
         style="font-weight:bold;font-family:'Product Sans';-inkscape-font-specification:'Product Sans Bold';fill:#ffffff"
         id="path2164" />
      <path
         d="m 251.86728,480.8536 q -1.76546,3.11552 -4.77713,5.03675 -2.95974,1.92124 -7.26954,1.92124 -2.90782,0 -5.40024,-0.98658 -2.44048,-1.03851 -4.25787,-2.85589 -1.81739,-1.81739 -2.85589,-4.25788 -0.98658,-2.49241 -0.98658,-5.45216 0,-2.75204 0.98658,-5.19253 0.98658,-2.49241 2.75204,-4.3098 1.76546,-1.86931 4.15402,-2.95974 2.44049,-1.09043 5.34831,-1.09043 3.06359,0 5.45216,1.03851 2.38856,0.98658 3.99824,2.80396 1.60969,1.76546 2.44049,4.20595 0.83081,2.44049 0.83081,5.29638 0,0.36348 0,0.62311 -0.0519,0.31155 -0.0519,0.57118 -0.0519,0.25962 -0.0519,0.57117 h -19.16044 q 0.2077,1.55776 0.83081,2.70012 0.67503,1.09043 1.60968,1.86931 0.98658,0.72695 2.12894,1.09043 1.14235,0.31155 2.33664,0.31155 2.33664,0 3.84247,-1.0385 1.55776,-1.09043 2.44049,-2.70012 z m -6.17912,-9.86581 q -0.0519,-0.67503 -0.46732,-1.50583 -0.36348,-0.83081 -1.14236,-1.55776 -0.72695,-0.72696 -1.86931,-1.19428 -1.09043,-0.46733 -2.64819,-0.46733 -2.18086,0 -3.84247,1.24621 -1.66161,1.2462 -2.33664,3.47899 z"
         style="font-weight:bold;font-family:'Product Sans';-inkscape-font-specification:'Product Sans Bold';fill:#ffffff"
         id="path2166" />
      <path
         d="m 270.92385,487.81159 q -3.42707,0 -6.17911,-1.40198 -2.75204,-1.45391 -4.72521,-3.94633 -1.92123,-2.49241 -2.95974,-5.86756 -1.0385,-3.42707 -1.0385,-7.37339 0,-3.94632 1.0385,-7.32147 1.03851,-3.42707 2.95974,-5.91948 1.97317,-2.49242 4.72521,-3.8944 2.75204,-1.45391 6.17911,-1.45391 3.42707,0 6.17911,1.45391 2.75204,1.40198 4.67327,3.8944 1.97317,2.49241 3.01167,5.91948 1.03851,3.37515 1.03851,7.32147 0,3.94632 -1.03851,7.37339 -1.0385,3.37515 -3.01167,5.86756 -1.92123,2.49242 -4.67327,3.94633 -2.75204,1.40198 -6.17911,1.40198 z m 0,-6.43874 q 1.86931,0 3.37514,-0.88273 1.50584,-0.93465 2.54434,-2.54434 1.09043,-1.66161 1.60969,-3.8944 0.57117,-2.23278 0.57117,-4.82905 0,-2.64819 -0.57117,-4.82905 -0.51926,-2.23279 -1.60969,-3.84247 -1.0385,-1.66161 -2.54434,-2.54434 -1.50583,-0.93466 -3.37514,-0.93466 -1.92124,0 -3.42707,0.93466 -1.50584,0.88273 -2.54434,2.54434 -1.03851,1.60968 -1.60969,3.84247 -0.51925,2.18086 -0.51925,4.82905 0,2.59627 0.51925,4.82905 0.57118,2.23279 1.60969,3.8944 1.0385,1.60969 2.54434,2.54434 1.50583,0.88273 3.42707,0.88273 z"
         style="font-weight:bold;font-family:'Product Sans';-inkscape-font-specification:'Product Sans Bold';fill:#ffffff"
         id="path2168" />
    </g>
  </g>
</svg>
