<?xml version="1.0" encoding="UTF-8" standalone="no"?>
<!-- Created with Inkscape (http://www.inkscape.org/) -->

<svg
   width="94.627998mm"
   height="23.017206mm"
   viewBox="0 0 94.627998 23.017206"
   version="1.1"
   id="svg3542"
   inkscape:version="1.2.1 (9c6d41e410, 2022-07-14)"
   sodipodi:docname="oak-restricted-kernel-negative-colour.svg"
   inkscape:export-filename="/home/mschett/Documents/oak-logo/oak-restricted-kernel.png"
   inkscape:export-xdpi="96"
   inkscape:export-ydpi="96"
   xmlns:inkscape="http://www.inkscape.org/namespaces/inkscape"
   xmlns:sodipodi="http://sodipodi.sourceforge.net/DTD/sodipodi-0.dtd"
   xmlns="http://www.w3.org/2000/svg"
   xmlns:svg="http://www.w3.org/2000/svg">
  <sodipodi:namedview
     id="namedview3544"
     pagecolor="#ffffff"
     bordercolor="#666666"
     borderopacity="1.0"
     inkscape:pageshadow="2"
     inkscape:pageopacity="0.0"
     inkscape:pagecheckerboard="0"
     inkscape:document-units="mm"
     showgrid="false"
     fit-margin-top="0"
     fit-margin-left="0"
     fit-margin-right="0"
     fit-margin-bottom="0"
     inkscape:zoom="0.72782688"
     inkscape:cx="225.32831"
     inkscape:cy="162.12647"
     inkscape:window-width="2560"
     inkscape:window-height="1355"
     inkscape:window-x="1080"
     inkscape:window-y="278"
     inkscape:window-maximized="1"
     inkscape:current-layer="layer1"
     inkscape:showpageshadow="2"
     inkscape:deskcolor="#d1d1d1" />
  <defs
     id="defs3539">
    <rect
       x="117.74503"
       y="441.03894"
       width="544.48914"
       height="88.909904"
       id="rect24124-0-3-9-3-8-9-2" />
  </defs>
  <g
     inkscape:label="Layer 1"
     inkscape:groupmode="layer"
     id="layer1"
     transform="translate(-21.028718,-105.91)">
    <g
       id="g1093-4-9-8-5-0-6"
       transform="matrix(0.71967634,0,0,0.71967634,-7.9642107,94.42807)">
      <path
         id="path9713-6-2-2-3-3-4-6-0-6-2-8"
         style="fill:#ffbf00;stroke:#737373;stroke-width:0.18087"
         d="m 51.78657,23.616285 a 3.4338517,4.666791 0 0 1 -3.433852,4.666791 3.4338517,4.666791 0 0 1 -3.433851,-4.666791 3.4338517,4.666791 0 0 1 3.433851,-4.666791 3.4338517,4.666791 0 0 1 3.433852,4.666791 z" />
      <g
         id="g1086-4-2-2-6-7-9"
         transform="translate(0.00621353)">
        <path
           style="fill:#34a852;fill-opacity:1;stroke:#6d6d6d;stroke-width:0.18087;stroke-linecap:butt;stroke-linejoin:round;stroke-miterlimit:4;stroke-dasharray:none;stroke-opacity:1"
           d="m 40.370287,24.132384 7.070141,-0.107451 0.0395,10.637571 c 0,0 -6.003695,0.21491 -7.109642,-10.53012 z"
           id="path9925-6-6-9-6-5-4-1-1-4-6-0"
           sodipodi:nodetypes="cccc" />
        <path
           style="fill:#34a852;fill-opacity:1;stroke:#737373;stroke-width:0.18087;stroke-linecap:butt;stroke-linejoin:round;stroke-miterlimit:4;stroke-dasharray:none;stroke-opacity:1"
           d="m 56.322723,24.132381 -7.070141,-0.107451 -0.0395,10.637574 c 0,0 6.003695,0.2149 7.109641,-10.530123 z"
           id="path9925-6-6-9-6-5-6-7-7-0-0-1-6"
           sodipodi:nodetypes="cccc" />
      </g>
      <path
         id="path10128-9-6-0-6-5-6-8-5-0-3-8"
         style="fill:#137333;fill-opacity:1;stroke:#737373;stroke-width:0.18087;stroke-miterlimit:4;stroke-dasharray:none;stroke-opacity:1"
         d="m 48.350392,16.044738 a 7.9903085,6.9200343 0 0 0 -7.935184,6.151089 h 15.875021 a 7.9903085,6.9200343 0 0 0 -7.939837,-6.151089 z" />
    </g>
    <g
       aria-label="Project Oak"
       transform="matrix(0.19557787,0,0,0.19557787,12.034509,19.280157)"
       id="text24122-3-5-1-4-2-7"
       style="font-size:66.6667px;line-height:1.25;white-space:pre;shape-inside:url(#rect24124);fill:#ffffff">
      <path
         d="m 122.54414,502.13418 v -47.73336 h 16.80001 q 3.4,0 6.33334,1.13333 3,1.06667 5.2,3.06667 2.2,2 3.46667,4.8 1.26667,2.73334 1.26667,6.06667 0,3.4 -1.26667,6.20001 -1.26667,2.73333 -3.46667,4.73333 -2.2,2 -5.2,3.13334 -2.93334,1.06666 -6.33334,1.06666 h -7.8 v 17.53335 z m 16.93335,-26.06668 q 3.53333,0 5.33333,-2.00001 1.8,-2 1.8,-4.6 0,-1.26667 -0.46666,-2.46667 -0.4,-1.2 -1.33334,-2.06666 -0.86667,-0.93334 -2.2,-1.46667 -1.33333,-0.53333 -3.13333,-0.53333 h -7.93334 v 13.13334 z"
         style="font-weight:bold;font-family:'Product Sans';-inkscape-font-specification:'Product Sans Bold';fill:#ffffff"
         id="path15728-1-7-1-6-1-9" />
      <path
         d="m 160.9441,469.46749 h 8.20001 v 4.53334 h 0.53333 q 0.6,-1.2 1.6,-2.2 1,-1 2.2,-1.73334 1.26667,-0.73333 2.66667,-1.13333 1.46667,-0.4 2.86667,-0.4 1.73333,0 2.93333,0.33333 1.26667,0.33334 2.13334,0.86667 l -2.33334,7.93334 q -0.8,-0.4 -1.8,-0.6 -0.93333,-0.26667 -2.33333,-0.26667 -1.8,0 -3.26667,0.73333 -1.46667,0.66667 -2.53334,1.93334 -1,1.26666 -1.6,3 -0.53333,1.66667 -0.53333,3.66667 v 16.00001 h -8.73334 z"
         style="font-weight:bold;font-family:'Product Sans';-inkscape-font-specification:'Product Sans Bold';fill:#ffffff"
         id="path15730-7-4-0-2-5-0" />
      <path
         d="m 201.54405,468.40082 q 3.8,0 6.93334,1.33334 3.2,1.26667 5.46667,3.6 2.33333,2.26667 3.6,5.46667 1.33333,3.2 1.33333,7 0,3.80001 -1.33333,7.00001 -1.26667,3.2 -3.6,5.53333 -2.26667,2.26667 -5.46667,3.60001 -3.13334,1.26666 -6.93334,1.26666 -3.8,0 -7,-1.26666 -3.13334,-1.33334 -5.46667,-3.60001 -2.26667,-2.33333 -3.60001,-5.53333 -1.26666,-3.2 -1.26666,-7.00001 0,-3.8 1.26666,-7 1.33334,-3.2 3.60001,-5.46667 2.33333,-2.33333 5.46667,-3.6 3.2,-1.33334 7,-1.33334 z m 0,26.73335 q 1.66667,0 3.2,-0.6 1.6,-0.66666 2.8,-1.86667 1.2,-1.2 1.86667,-2.93333 0.73333,-1.73333 0.73333,-3.93334 0,-2.2 -0.73333,-3.93333 -0.66667,-1.73334 -1.86667,-2.93334 -1.2,-1.2 -2.8,-1.8 -1.53333,-0.66666 -3.2,-0.66666 -1.73333,0 -3.26667,0.66666 -1.53333,0.6 -2.73333,1.8 -1.2,1.2 -1.93334,2.93334 -0.66666,1.73333 -0.66666,3.93333 0,2.20001 0.66666,3.93334 0.73334,1.73333 1.93334,2.93333 1.2,1.20001 2.73333,1.86667 1.53334,0.6 3.26667,0.6 z"
         style="font-weight:bold;font-family:'Product Sans';-inkscape-font-specification:'Product Sans Bold';fill:#ffffff"
         id="path15732-5-18-8-6-9-3" />
      <path
         d="m 219.41054,508.53418 q 0.53333,0.33333 1,0.46667 0.53333,0.13333 1.26667,0.13333 3,0 3,-3.93334 v -35.73335 h 8.73333 v 36.00002 q 0,3.2 -0.86666,5.4 -0.86667,2.26667 -2.33334,3.66667 -1.46666,1.4 -3.4,2 -1.93333,0.66667 -4.13333,0.66667 -1.66667,0 -3.00001,-0.26667 -1.33333,-0.2 -2.46666,-0.66666 z m 9.6,-43.80002 q -1.13333,0 -2.2,-0.4 -1,-0.46667 -1.8,-1.2 -0.73333,-0.80001 -1.2,-1.80001 -0.4,-1 -0.4,-2.2 0,-1.2 0.4,-2.2 0.46667,-1 1.2,-1.73333 0.8,-0.8 1.8,-1.2 1.06667,-0.46667 2.2,-0.46667 2.33334,0 4,1.66667 1.66667,1.6 1.66667,3.93333 0,2.33334 -1.66667,4.00001 -1.66666,1.6 -4,1.6 z"
         style="font-weight:bold;font-family:'Product Sans';-inkscape-font-specification:'Product Sans Bold';fill:#ffffff"
         id="path15734-9-5-5-7-9-3" />
      <path
         d="m 272.01042,494.26751 q -2.26667,4 -6.13334,6.46667 -3.8,2.46666 -9.33334,2.46666 -3.73333,0 -6.93333,-1.26666 -3.13334,-1.33334 -5.46667,-3.66667 -2.33334,-2.33334 -3.66667,-5.46667 -1.26667,-3.2 -1.26667,-7.00001 0,-3.53333 1.26667,-6.66667 1.26667,-3.2 3.53333,-5.53333 2.26667,-2.4 5.33334,-3.8 3.13334,-1.40001 6.86667,-1.40001 3.93334,0 7.00001,1.33334 3.06666,1.26667 5.13333,3.6 2.06667,2.26667 3.13334,5.4 1.06666,3.13334 1.06666,6.80001 0,0.46666 0,0.8 -0.0667,0.4 -0.0667,0.73333 -0.0667,0.33333 -0.0667,0.73334 h -24.60001 q 0.26666,2 1.06666,3.46666 0.86667,1.4 2.06667,2.40001 1.26667,0.93333 2.73334,1.4 1.46666,0.4 3,0.4 3,0 4.93333,-1.33334 2.00001,-1.4 3.13334,-3.46667 z m -7.93334,-12.66668 q -0.0667,-0.86667 -0.6,-1.93333 -0.46666,-1.06667 -1.46667,-2 -0.93333,-0.93334 -2.4,-1.53334 -1.4,-0.6 -3.4,-0.6 -2.8,0 -4.93333,1.6 -2.13334,1.6 -3.00001,4.46667 z"
         style="font-weight:bold;font-family:'Product Sans';-inkscape-font-specification:'Product Sans Bold';fill:#ffffff"
         id="path15736-6-97-0-5-1-3" />
      <path
         d="m 309.47703,493.80084 q -2.13333,4.13333 -6,6.8 -3.8,2.6 -9.53334,2.6 -3.8,0 -7,-1.26666 -3.13334,-1.33334 -5.46667,-3.66667 -2.26667,-2.33334 -3.6,-5.46667 -1.26667,-3.2 -1.26667,-7.00001 0,-3.8 1.26667,-7 1.33333,-3.2 3.6,-5.46667 2.33333,-2.33333 5.46667,-3.6 3.2,-1.33334 7,-1.33334 5.66667,0 9.53334,2.60001 3.86667,2.6 5.66667,6.73333 l -8,3.33334 q -1.13334,-2.26667 -2.93334,-3.4 -1.73333,-1.2 -4.4,-1.2 -1.73333,0 -3.26667,0.66666 -1.53333,0.66667 -2.73333,1.86667 -1.13334,1.2 -1.8,2.93334 -0.66667,1.73333 -0.66667,3.86666 0,2.13334 0.66667,3.86667 0.66666,1.73334 1.8,2.93334 1.2,1.2 2.73333,1.86667 1.53334,0.66666 3.26667,0.66666 2.73333,0 4.6,-1.2 1.93334,-1.26667 3.06667,-3.6 z"
         style="font-weight:bold;font-family:'Product Sans';-inkscape-font-specification:'Product Sans Bold';fill:#ffffff"
         id="path15738-2-5-6-6-4-7" />
      <path
         d="m 318.07685,476.93416 h -5.73333 v -7.46667 h 5.73333 v -10 h 8.73334 v 10 h 8 v 7.46667 h -8 v 12.66668 q 0,1.13333 0.2,2.13333 0.26667,0.93333 0.93333,1.6 0.93334,1.06667 2.66667,1.06667 1.13334,0 1.8,-0.2 0.66667,-0.26667 1.26667,-0.66667 l 2.46667,7.66667 q -1.53334,0.73334 -3.33334,1.06667 -1.73333,0.4 -3.86667,0.4 -2.46666,0 -4.46666,-0.73333 -1.93334,-0.8 -3.26667,-2.13334 -3.13334,-3 -3.13334,-8.53334 z"
         style="font-weight:bold;font-family:'Product Sans';-inkscape-font-specification:'Product Sans Bold';fill:#ffffff"
         id="path15740-1-3-4-9-9-3" />
      <path
         d="M 337.47679,502.13418 Z"
         style="font-weight:bold;font-family:'Product Sans';-inkscape-font-specification:'Product Sans Bold';fill:#ffffff"
         id="path15742-7-8-6-8-1-2" />
      <path
         d="m 378.21007,503.20084 q -5.33333,0 -9.93334,-1.93333 -4.53333,-1.93334 -7.86667,-5.26667 -3.33333,-3.4 -5.26667,-7.93334 -1.86666,-4.6 -1.86666,-9.8 0,-5.20001 1.86666,-9.73334 1.93334,-4.6 5.26667,-7.93334 3.33334,-3.4 7.86667,-5.33334 4.60001,-1.93333 9.93334,-1.93333 5.33334,0 9.86668,1.93333 4.6,1.93334 7.93333,5.33334 3.33334,3.33334 5.20001,7.93334 1.93333,4.53333 1.93333,9.73334 0,5.2 -1.93333,9.8 -1.86667,4.53334 -5.20001,7.93334 -3.33333,3.33333 -7.93333,5.26667 -4.53334,1.93333 -9.86668,1.93333 z m 0,-8.53333 q 3.33334,0 6.20001,-1.20001 2.93333,-1.2 5.06667,-3.33333 2.2,-2.13333 3.4,-5.13334 1.26667,-3.06666 1.26667,-6.73333 0,-3.66667 -1.26667,-6.66667 -1.2,-3.06667 -3.4,-5.20001 -2.13334,-2.13333 -5.06667,-3.33333 -2.86667,-1.2 -6.20001,-1.2 -3.33333,0 -6.26667,1.2 -2.86666,1.2 -5.06667,3.33333 -2.13333,2.13334 -3.4,5.20001 -1.2,3 -1.2,6.66667 0,3.66667 1.2,6.73333 1.26667,3.00001 3.4,5.13334 2.20001,2.13333 5.06667,3.33333 2.93334,1.20001 6.26667,1.20001 z"
         style="font-weight:bold;font-family:'Product Sans';-inkscape-font-specification:'Product Sans Bold';fill:#ffffff"
         id="path15744-8-8-2-7-0-6" />
      <path
         d="m 429.47666,498.66751 h -0.53333 q -1.53333,1.86667 -3.73333,3.2 -2.13334,1.33333 -5.53334,1.33333 -2.53334,0 -4.8,-0.86666 -2.2,-0.8 -3.86667,-2.26667 -1.66667,-1.46667 -2.6,-3.53334 -0.93334,-2.06666 -0.93334,-4.53333 0,-2.53334 1,-4.53334 1,-2.06667 2.80001,-3.53333 1.8,-1.46667 4.2,-2.2 2.46667,-0.80001 5.33333,-0.80001 3.20001,0 5.26667,0.53334 2.06667,0.46667 3.4,1 v -1 q 0,-2.6 -2.06666,-4.26667 -2.06667,-1.73333 -5.13334,-1.73333 -4.53333,0 -7.66667,3.8 l -6.33334,-4.33334 q 5.20001,-6.53334 14.20001,-6.53334 7.60001,0 11.60001,3.60001 4,3.53333 4,10.53334 v 19.60001 h -8.60001 z m 0,-9.80001 q -1.53333,-0.73333 -3.2,-1.13333 -1.6,-0.46667 -3.53333,-0.46667 -3.13334,0 -4.86667,1.4 -1.66667,1.33334 -1.66667,3.33334 0,2 1.6,3.2 1.66667,1.2 3.8,1.2 1.73334,0 3.20001,-0.6 1.46666,-0.66667 2.46666,-1.66667 1.06667,-1.06667 1.6,-2.4 0.6,-1.4 0.6,-2.86667 z"
         style="font-weight:bold;font-family:'Product Sans';-inkscape-font-specification:'Product Sans Bold';fill:#ffffff"
         id="path15746-5-31-5-2-7-5" />
      <path
         d="m 445.01001,454.40082 h 8.73334 v 26.00001 h 0.4 l 10.93334,-10.93334 h 10.8 v 0.53334 l -12.13334,11.8 13.13334,19.80001 v 0.53334 h -10.33334 l -8.93334,-14.33334 -3.86666,3.8 v 10.53334 h -8.73334 z"
         style="font-weight:bold;font-family:'Product Sans';-inkscape-font-specification:'Product Sans Bold';fill:#ffffff"
         id="path15748-7-89-8-8-5-2" />
    </g>
    <g
       aria-label="Restricted Kernel"
       transform="matrix(0.19651719,0,0,0.19651719,11.323228,32.740779)"
       id="text24122-8-2-1-6-2-8-6"
       style="font-size:51.9253px;line-height:1.25;white-space:pre;shape-inside:url(#rect24124-0-3-9-3-8-9-2);fill:#ffffff">
      <path
         d="m 121.48276,451.44625 h 13.55251 q 2.80396,0 5.08868,0.88273 2.28471,0.88273 3.89439,2.44049 1.66161,1.55776 2.54434,3.73862 0.88273,2.12894 0.88273,4.67328 0,1.86931 -0.6231,3.53092 -0.6231,1.60969 -1.71354,2.95974 -1.09043,1.29814 -2.54434,2.33664 -1.4539,0.98658 -3.06359,1.55776 l -0.0519,0.36348 9.96965,14.27946 v 0.4154 h -8.04842 l -9.60618,-13.96791 h -3.27129 v 13.96791 h -7.00992 z m 13.50058,16.77188 q 2.38856,0 3.8944,-1.45391 1.55776,-1.45391 1.55776,-3.6867 0,-0.98658 -0.36348,-1.92123 -0.31155,-0.93466 -0.98658,-1.66161 -0.67503,-0.72696 -1.71354,-1.14236 -0.98658,-0.46733 -2.28471,-0.46733 h -6.59451 v 10.33314 z"
         style="font-weight:bold;font-family:'Product Sans';-inkscape-font-specification:'Product Sans Bold';fill:#ffffff"
         id="path3712" />
      <path
         d="m 176.41966,482.49758 q -1.76546,3.11552 -4.77712,5.03676 -2.95975,1.92123 -7.26955,1.92123 -2.90781,0 -5.40023,-0.98658 -2.44049,-1.0385 -4.25787,-2.85589 -1.81739,-1.81738 -2.85589,-4.25787 -0.98658,-2.49242 -0.98658,-5.45216 0,-2.75204 0.98658,-5.19253 0.98658,-2.49241 2.75204,-4.3098 1.76546,-1.86931 4.15402,-2.95974 2.44049,-1.09043 5.34831,-1.09043 3.06359,0 5.45215,1.0385 2.38857,0.98658 3.99825,2.80397 1.60969,1.76546 2.44049,4.20595 0.83081,2.44049 0.83081,5.29638 0,0.36348 0,0.6231 -0.0519,0.31155 -0.0519,0.57118 -0.0519,0.25963 -0.0519,0.57118 h -19.16043 q 0.2077,1.55776 0.8308,2.70012 0.67503,1.09043 1.60969,1.86931 0.98658,0.72695 2.12894,1.09043 1.14235,0.31155 2.33663,0.31155 2.33664,0 3.84248,-1.03851 1.55776,-1.09043 2.44049,-2.70011 z m -6.17911,-9.8658 q -0.0519,-0.67503 -0.46733,-1.50584 -0.36347,-0.8308 -1.14235,-1.55776 -0.72696,-0.72695 -1.86931,-1.19428 -1.09043,-0.46733 -2.64819,-0.46733 -2.18087,0 -3.84248,1.24621 -1.66161,1.24621 -2.33663,3.479 z"
         style="font-weight:bold;font-family:'Product Sans';-inkscape-font-specification:'Product Sans Bold';fill:#ffffff"
         id="path3714" />
      <path
         d="m 191.52987,489.45557 q -2.49241,0 -4.46557,-0.6231 -1.92124,-0.6231 -3.37515,-1.60968 -1.40198,-1.03851 -2.38856,-2.33664 -0.98658,-1.35006 -1.50584,-2.70012 l 6.07526,-2.59626 q 0.88273,1.97316 2.33664,2.95974 1.50584,0.93465 3.32322,0.93465 1.86931,0 2.95974,-0.67502 1.09043,-0.67503 1.09043,-1.60969 0,-1.0385 -0.93465,-1.66161 -0.88273,-0.67503 -3.11552,-1.19428 l -3.58284,-0.77888 q -1.19429,-0.25963 -2.49242,-0.8308 -1.24621,-0.57118 -2.28471,-1.45391 -1.03851,-0.88273 -1.71354,-2.12894 -0.67503,-1.24621 -0.67503,-2.90782 0,-1.86931 0.77888,-3.32322 0.83081,-1.4539 2.23279,-2.44049 1.40198,-1.0385 3.2713,-1.55775 1.92123,-0.57118 4.10209,-0.57118 3.63477,0 6.49067,1.45391 2.85589,1.40198 4.20595,4.5175 l -5.86756,2.38856 q -0.72696,-1.50583 -2.12894,-2.18086 -1.40198,-0.67503 -2.80397,-0.67503 -1.45391,0 -2.54434,0.6231 -1.09043,0.57118 -1.09043,1.50584 0,0.88273 0.88273,1.40198 0.93466,0.51925 2.49242,0.93465 l 3.89439,0.93466 q 3.8944,0.93466 5.76371,3.01167 1.92124,2.02508 1.92124,4.82905 0,1.66161 -0.77888,3.16744 -0.77888,1.50584 -2.23279,2.70012 -1.40198,1.14236 -3.42707,1.81739 -1.97316,0.67502 -4.41365,0.67502 z"
         style="font-weight:bold;font-family:'Product Sans';-inkscape-font-specification:'Product Sans Bold';fill:#ffffff"
         id="path3716" />
      <path
         d="m 209.08056,468.99701 h -4.46558 v -5.81564 h 4.46558 v -7.78879 h 6.80221 v 7.78879 h 6.23104 v 5.81564 h -6.23104 v 9.8658 q 0,0.88273 0.15578,1.66161 0.2077,0.72696 0.72695,1.24621 0.72696,0.8308 2.07701,0.8308 0.88273,0 1.40199,-0.15577 0.51925,-0.2077 0.98658,-0.51925 l 1.92123,5.97141 q -1.19428,0.57117 -2.59626,0.8308 -1.35006,0.31155 -3.01167,0.31155 -1.92123,0 -3.47899,-0.57118 -1.50584,-0.6231 -2.54434,-1.66161 -2.44049,-2.33663 -2.44049,-6.64643 z"
         style="font-weight:bold;font-family:'Product Sans';-inkscape-font-specification:'Product Sans Bold';fill:#ffffff"
         id="path3718" />
      <path
         d="m 227.09858,463.18137 h 6.38681 v 3.53092 h 0.41541 q 0.46732,-0.93465 1.2462,-1.71353 0.77888,-0.77888 1.71354,-1.35006 0.98658,-0.57118 2.07701,-0.88273 1.14236,-0.31155 2.23279,-0.31155 1.35006,0 2.28471,0.25962 0.98658,0.25963 1.66161,0.67503 l -1.81738,6.17911 q -0.62311,-0.31155 -1.40199,-0.46732 -0.72695,-0.2077 -1.81738,-0.2077 -1.40199,0 -2.54434,0.57117 -1.14236,0.51926 -1.97316,1.50584 -0.77888,0.98658 -1.24621,2.33664 -0.4154,1.29813 -0.4154,2.85589 v 12.46207 h -6.80222 z"
         style="font-weight:bold;font-family:'Product Sans';-inkscape-font-specification:'Product Sans Bold';fill:#ffffff"
         id="path3720" />
      <path
         d="m 252.0227,459.49468 q -0.88273,0 -1.71353,-0.31156 -0.77888,-0.36347 -1.40198,-0.93465 -0.57118,-0.62311 -0.93466,-1.40198 -0.31155,-0.77888 -0.31155,-1.71354 0,-0.93466 0.31155,-1.71353 0.36348,-0.77888 0.93466,-1.35006 0.6231,-0.62311 1.40198,-0.93466 0.8308,-0.36347 1.71353,-0.36347 1.81739,0 3.11552,1.29813 1.29814,1.2462 1.29814,3.06359 0,1.81739 -1.29814,3.11552 -1.29813,1.24621 -3.11552,1.24621 z m -3.37514,29.13009 v -25.4434 h 6.80221 v 25.4434 z"
         style="font-weight:bold;font-family:'Product Sans';-inkscape-font-specification:'Product Sans Bold';fill:#ffffff"
         id="path3722" />
      <path
         d="m 285.56634,482.13411 q -1.66161,3.21937 -4.67328,5.29638 -2.95974,2.02508 -7.42531,2.02508 -2.95975,0 -5.45216,-0.98658 -2.44049,-1.0385 -4.25787,-2.85589 -1.76546,-1.81738 -2.80397,-4.25787 -0.98658,-2.49242 -0.98658,-5.45216 0,-2.95974 0.98658,-5.45216 1.03851,-2.49241 2.80397,-4.25787 1.81738,-1.81739 4.25787,-2.80397 2.49241,-1.0385 5.45216,-1.0385 4.41365,0 7.42531,2.02508 3.01167,2.02509 4.41365,5.24446 l -6.23103,2.59626 q -0.88273,-1.76546 -2.28471,-2.64819 -1.35006,-0.93465 -3.42707,-0.93465 -1.35006,0 -2.54434,0.51925 -1.19429,0.51925 -2.12894,1.45391 -0.88273,0.93466 -1.40198,2.28471 -0.51926,1.35006 -0.51926,3.01167 0,1.66161 0.51926,3.01167 0.51925,1.35006 1.40198,2.28471 0.93465,0.93466 2.12894,1.45391 1.19428,0.51925 2.54434,0.51925 2.12893,0 3.58284,-0.93465 1.50584,-0.98658 2.38857,-2.80397 z"
         style="font-weight:bold;font-family:'Product Sans';-inkscape-font-specification:'Product Sans Bold';fill:#ffffff"
         id="path3724" />
      <path
         d="m 292.26455,468.99701 h -4.46558 v -5.81564 h 4.46558 v -7.78879 h 6.80221 v 7.78879 h 6.23104 v 5.81564 h -6.23104 v 9.8658 q 0,0.88273 0.15578,1.66161 0.2077,0.72696 0.72695,1.24621 0.72696,0.8308 2.07701,0.8308 0.88273,0 1.40199,-0.15577 0.51925,-0.2077 0.98658,-0.51925 l 1.92123,5.97141 q -1.19428,0.57117 -2.59626,0.8308 -1.35006,0.31155 -3.01167,0.31155 -1.92123,0 -3.47899,-0.57118 -1.50584,-0.6231 -2.54434,-1.66161 -2.44049,-2.33663 -2.44049,-6.64643 z"
         style="font-weight:bold;font-family:'Product Sans';-inkscape-font-specification:'Product Sans Bold';fill:#ffffff"
         id="path3726" />
      <path
         d="m 334.11624,482.49758 q -1.76546,3.11552 -4.77713,5.03676 -2.95974,1.92123 -7.26954,1.92123 -2.90782,0 -5.40023,-0.98658 -2.44049,-1.0385 -4.25788,-2.85589 -1.81738,-1.81738 -2.85589,-4.25787 -0.98658,-2.49242 -0.98658,-5.45216 0,-2.75204 0.98658,-5.19253 0.98658,-2.49241 2.75204,-4.3098 1.76546,-1.86931 4.15403,-2.95974 2.44049,-1.09043 5.3483,-1.09043 3.06359,0 5.45216,1.0385 2.38856,0.98658 3.99825,2.80397 1.60968,1.76546 2.44049,4.20595 0.8308,2.44049 0.8308,5.29638 0,0.36348 0,0.6231 -0.0519,0.31155 -0.0519,0.57118 -0.0519,0.25963 -0.0519,0.57118 H 315.2674 q 0.20771,1.55776 0.83081,2.70012 0.67503,1.09043 1.60968,1.86931 0.98658,0.72695 2.12894,1.09043 1.14236,0.31155 2.33664,0.31155 2.33664,0 3.84247,-1.03851 1.55776,-1.09043 2.44049,-2.70011 z m -6.17911,-9.8658 q -0.0519,-0.67503 -0.46733,-1.50584 -0.36348,-0.8308 -1.14236,-1.55776 -0.72695,-0.72695 -1.86931,-1.19428 -1.09043,-0.46733 -2.64819,-0.46733 -2.18086,0 -3.84247,1.24621 -1.66161,1.24621 -2.33664,3.479 z"
         style="font-weight:bold;font-family:'Product Sans';-inkscape-font-specification:'Product Sans Bold';fill:#ffffff"
         id="path3728" />
      <path
         d="m 358.10567,485.56118 h -0.4154 q -0.93466,1.60968 -2.90782,2.75204 -1.97316,1.14235 -4.88098,1.14235 -2.44049,0 -4.67328,-0.98658 -2.18086,-1.0385 -3.89439,-2.80396 -1.66161,-1.81739 -2.64819,-4.3098 -0.98658,-2.49242 -0.98658,-5.45216 0,-2.95974 0.98658,-5.45216 0.98658,-2.49241 2.64819,-4.25787 1.71353,-1.81739 3.89439,-2.80397 2.23279,-1.0385 4.67328,-1.0385 2.90782,0 4.88098,1.14235 1.97316,1.14236 2.90782,2.75204 h 0.4154 l -0.4154,-3.63477 v -11.16394 h 6.80221 v 37.17852 h -6.38681 z m -6.80222,-2.38857 q 1.35006,0 2.54434,-0.46733 1.24621,-0.51925 2.18087,-1.4539 0.93465,-0.93466 1.50583,-2.28472 0.57118,-1.35005 0.57118,-3.06359 0,-1.71353 -0.57118,-3.06359 -0.57118,-1.35006 -1.50583,-2.28472 -0.93466,-0.93465 -2.18087,-1.40198 -1.19428,-0.51925 -2.54434,-0.51925 -1.35005,0 -2.59626,0.51925 -1.19428,0.51925 -2.12894,1.45391 -0.93465,0.93466 -1.50583,2.28471 -0.57118,1.35006 -0.57118,3.01167 0,1.66161 0.57118,3.01167 0.57118,1.35006 1.50583,2.28471 0.93466,0.93466 2.12894,1.45391 1.24621,0.51925 2.59626,0.51925 z"
         style="font-weight:bold;font-family:'Product Sans';-inkscape-font-specification:'Product Sans Bold';fill:#ffffff"
         id="path3730" />
      <path
         d="M 367.40022,488.62477 Z"
         style="font-weight:bold;font-family:'Product Sans';-inkscape-font-specification:'Product Sans Bold';fill:#ffffff"
         id="path3732" />
      <path
         d="m 382.56238,451.44625 h 7.00992 v 15.94107 h 0.4154 l 13.60443,-15.94107 h 8.46382 v 0.41541 l -13.44865,15.36989 14.85064,20.97782 v 0.4154 h -8.56768 l -11.06009,-15.83722 -4.25787,4.93291 v 10.90431 h -7.00992 z"
         style="font-weight:bold;font-family:'Product Sans';-inkscape-font-specification:'Product Sans Bold';fill:#ffffff"
         id="path3734" />
      <path
         d="m 439.52435,482.49758 q -1.76546,3.11552 -4.77713,5.03676 -2.95974,1.92123 -7.26954,1.92123 -2.90782,0 -5.40023,-0.98658 -2.44049,-1.0385 -4.25788,-2.85589 -1.81738,-1.81738 -2.85589,-4.25787 -0.98658,-2.49242 -0.98658,-5.45216 0,-2.75204 0.98658,-5.19253 0.98658,-2.49241 2.75204,-4.3098 1.76546,-1.86931 4.15403,-2.95974 2.44049,-1.09043 5.3483,-1.09043 3.0636,0 5.45216,1.0385 2.38856,0.98658 3.99825,2.80397 1.60968,1.76546 2.44049,4.20595 0.8308,2.44049 0.8308,5.29638 0,0.36348 0,0.6231 -0.0519,0.31155 -0.0519,0.57118 -0.0519,0.25963 -0.0519,0.57118 h -19.16043 q 0.2077,1.55776 0.8308,2.70012 0.67503,1.09043 1.60968,1.86931 0.98659,0.72695 2.12894,1.09043 1.14236,0.31155 2.33664,0.31155 2.33664,0 3.84247,-1.03851 1.55776,-1.09043 2.44049,-2.70011 z m -6.17911,-9.8658 q -0.0519,-0.67503 -0.46733,-1.50584 -0.36348,-0.8308 -1.14236,-1.55776 -0.72695,-0.72695 -1.86931,-1.19428 -1.09043,-0.46733 -2.64819,-0.46733 -2.18086,0 -3.84247,1.24621 -1.66161,1.24621 -2.33664,3.479 z"
         style="font-weight:bold;font-family:'Product Sans';-inkscape-font-specification:'Product Sans Bold';fill:#ffffff"
         id="path3736" />
      <path
         d="m 444.30146,463.18137 h 6.38682 v 3.53092 h 0.4154 q 0.46733,-0.93465 1.2462,-1.71353 0.77888,-0.77888 1.71354,-1.35006 0.98658,-0.57118 2.07701,-0.88273 1.14236,-0.31155 2.23279,-0.31155 1.35006,0 2.28471,0.25962 0.98658,0.25963 1.66161,0.67503 l -1.81738,6.17911 q -0.62311,-0.31155 -1.40199,-0.46732 -0.72695,-0.2077 -1.81738,-0.2077 -1.40198,0 -2.54434,0.57117 -1.14236,0.51926 -1.97316,1.50584 -0.77888,0.98658 -1.24621,2.33664 -0.4154,1.29813 -0.4154,2.85589 v 12.46207 h -6.80222 z"
         style="font-weight:bold;font-family:'Product Sans';-inkscape-font-specification:'Product Sans Bold';fill:#ffffff"
         id="path3738" />
      <path
         d="m 471.82185,466.50459 h 0.4154 q 1.19428,-1.92123 3.21937,-3.01167 2.02509,-1.14235 4.62135,-1.14235 2.38857,0 4.20595,0.77888 1.81739,0.77888 2.95974,2.23278 1.19429,1.40199 1.76546,3.42707 0.62311,1.97317 0.62311,4.41365 v 15.42182 h -6.80222 v -14.59101 q 0,-2.75204 -1.2462,-4.05017 -1.19428,-1.35006 -3.53092,-1.35006 -1.40199,0 -2.49242,0.6231 -1.0385,0.57118 -1.81738,1.60969 -0.72696,0.98658 -1.14236,2.38856 -0.36348,1.35006 -0.36348,2.90782 v 12.46207 h -6.80221 v -25.4434 h 6.38681 z"
         style="font-weight:bold;font-family:'Product Sans';-inkscape-font-specification:'Product Sans Bold';fill:#ffffff"
         id="path3740" />
      <path
         d="m 519.33346,482.49758 q -1.76546,3.11552 -4.77713,5.03676 -2.95974,1.92123 -7.26954,1.92123 -2.90781,0 -5.40023,-0.98658 -2.44049,-1.0385 -4.25787,-2.85589 -1.81739,-1.81738 -2.85589,-4.25787 -0.98659,-2.49242 -0.98659,-5.45216 0,-2.75204 0.98659,-5.19253 0.98658,-2.49241 2.75204,-4.3098 1.76546,-1.86931 4.15402,-2.95974 2.44049,-1.09043 5.34831,-1.09043 3.06359,0 5.45215,1.0385 2.38857,0.98658 3.99825,2.80397 1.60969,1.76546 2.44049,4.20595 0.8308,2.44049 0.8308,5.29638 0,0.36348 0,0.6231 -0.0519,0.31155 -0.0519,0.57118 -0.0519,0.25963 -0.0519,0.57118 h -19.16043 q 0.2077,1.55776 0.8308,2.70012 0.67503,1.09043 1.60969,1.86931 0.98658,0.72695 2.12893,1.09043 1.14236,0.31155 2.33664,0.31155 2.33664,0 3.84248,-1.03851 1.55775,-1.09043 2.44048,-2.70011 z m -6.17911,-9.8658 q -0.0519,-0.67503 -0.46733,-1.50584 -0.36347,-0.8308 -1.14235,-1.55776 -0.72696,-0.72695 -1.86931,-1.19428 -1.09044,-0.46733 -2.64819,-0.46733 -2.18087,0 -3.84248,1.24621 -1.66161,1.24621 -2.33663,3.479 z"
         style="font-weight:bold;font-family:'Product Sans';-inkscape-font-specification:'Product Sans Bold';fill:#ffffff"
         id="path3742" />
      <path
         d="m 524.11058,488.62477 v -37.17852 h 6.80221 v 37.17852 z"
         style="font-weight:bold;font-family:'Product Sans';-inkscape-font-specification:'Product Sans Bold';fill:#ffffff"
         id="path3744" />
    </g>
  </g>
</svg>
